<svg width="36" height="36" viewBox="0 0 36 36" fill="none" xmlns="http://www.w3.org/2000/svg">
<g id="Amazon" clip-path="url(#clip0_15_112)">
<g id="Amazon_2">
<rect id="Rectangle" width="36" height="36" rx="18" fill="#FF9201"/>
<g id="Group">
<path id="path3673" d="M24.4132 20.5918C23.9129 19.9074 23.3762 19.3505 23.3762 18.0768V13.8486C23.3762 12.0566 23.5062 10.4115 22.1708 9.17868C21.1196 8.17891 19.3735 7.82617 18.0381 7.82617C15.4264 7.82617 12.5128 8.78965 11.9018 11.9823C11.8372 12.3215 12.0862 12.499 12.312 12.5489L14.9714 12.8336C15.2204 12.821 15.4003 12.5789 15.4485 12.3351C15.6765 11.2349 16.608 10.7064 17.6546 10.7064C18.2191 10.7064 18.8601 10.9105 19.1942 11.4113C19.5788 11.9687 19.5272 12.7349 19.5272 13.3785V13.7329C17.9366 13.9087 15.8558 14.0256 14.3661 14.6715C12.6478 15.4075 11.4412 16.9052 11.4412 19.1066C11.4412 21.9279 13.2367 23.3382 15.5484 23.3382C17.4992 23.3382 18.5669 22.8828 20.0718 21.3653C20.5711 22.081 20.7345 22.4258 21.6449 23.1749C21.8491 23.2827 22.1124 23.2724 22.2933 23.1103L22.2939 23.1097L22.3001 23.1165C22.8481 22.6345 23.8431 21.7793 24.4042 21.3143C24.6282 21.1323 24.5885 20.838 24.4132 20.5918ZM19.0139 19.3726C18.5782 20.1382 17.8844 20.6066 17.1135 20.6066C16.0623 20.6066 15.4451 19.8126 15.4451 18.6382C15.4451 16.3262 17.5429 15.9066 19.5267 15.9066V16.4924H19.5272C19.5272 17.55 19.5528 18.4306 19.0139 19.3726Z" fill="white"/>
<g id="Group_2">
<path id="path3719" d="M27.6932 25.2058C25.0662 27.1433 21.2566 28.1742 17.9758 28.1742C13.3793 28.1742 9.23901 26.4759 6.10611 23.6484C5.86037 23.4261 6.07971 23.1225 6.37494 23.2951C9.75555 25.2616 13.9354 26.4453 18.2525 26.4453C21.165 26.4453 24.3661 25.8416 27.3115 24.592C27.7558 24.4041 28.1281 24.8854 27.6932 25.2058Z" fill="white"/>
<path id="path3721" d="M28.7863 23.9576C28.4505 23.5281 26.5645 23.7541 25.7187 23.8562C25.4615 23.886 25.4219 23.6629 25.653 23.4991C27.157 22.4432 29.6214 22.7487 29.9081 23.1017C30.1969 23.4596 29.8327 25.929 28.4229 27.1071C28.206 27.2889 28.0001 27.1932 28.0959 26.9533C28.413 26.1606 29.1233 24.3879 28.7863 23.9576Z" fill="white"/>
</g>
</g>
</g>
</g>
<defs>
<clipPath id="clip0_15_112">
<rect width="36" height="36" fill="white"/>
</clipPath>
</defs>
</svg>
