<svg width="200" height="200" viewBox="0 0 200 200" fill="none" xmlns="http://www.w3.org/2000/svg">
<g id="Mail.ru" clip-path="url(#clip0_33_2464)">
<g id="Mail.ru_2">
<rect id="Rectangle" width="200" height="200" rx="100" fill="#005FF9"/>
<path id="Vector" d="M120.052 99.9999C120.052 111.057 111.057 120.052 100 120.052C88.9429 120.052 79.9476 111.057 79.9476 99.9999C79.9476 88.9428 88.9429 79.9475 100 79.9475C111.057 79.9475 120.052 88.9428 120.052 99.9999ZM100 33.3333C63.2381 33.3333 33.3333 63.238 33.3333 99.9999C33.3333 136.762 63.2381 166.667 100 166.667C113.467 166.667 126.452 162.657 137.552 155.071L137.743 154.938L128.762 144.5L128.61 144.595C120.067 150.095 110.171 153 100 153C70.7762 153 47 129.224 47 99.9999C47 70.7761 70.7762 46.9999 100 46.9999C129.224 46.9999 153 70.7761 153 99.9999C153 103.786 152.576 107.619 151.752 111.39C150.076 118.271 145.257 120.376 141.643 120.1C138.005 119.805 133.748 117.214 133.719 110.871V106.038V99.9999C133.719 81.4047 118.595 66.2809 100 66.2809C81.4048 66.2809 66.281 81.4047 66.281 99.9999C66.281 118.595 81.4048 133.719 100 133.719C109.033 133.719 117.505 130.19 123.89 123.767C127.605 129.548 133.657 133.171 140.548 133.724C141.138 133.771 141.743 133.795 142.338 133.795C147.19 133.795 151.995 132.171 155.871 129.233C159.867 126.195 162.852 121.809 164.5 116.538C164.762 115.686 165.248 113.738 165.248 113.724L165.262 113.652C166.233 109.424 166.667 105.209 166.667 99.9999C166.667 63.238 136.762 33.3333 100 33.3333Z" fill="white"/>
</g>
</g>
<defs>
<clipPath id="clip0_33_2464">
<rect width="200" height="200" fill="white"/>
</clipPath>
</defs>
</svg>
