<svg width="120" height="120" viewBox="0 0 120 120" fill="none" xmlns="http://www.w3.org/2000/svg">
<g id="MasterCard" clip-path="url(#clip0_33_2472)">
<g id="MasterCard_2">
<rect id="Rectangle" width="120" height="120" rx="60" fill="#F26A21"/>
<path id="Subtract" fill-rule="evenodd" clip-rule="evenodd" d="M60.0003 38.2237C55.266 34.4731 49.2831 32.2266 42.7729 32.2266C27.4345 32.2266 15 44.6613 15 59.9997C15 75.3385 27.4345 87.7733 42.7729 87.7733C49.2831 87.7733 55.266 85.5273 60.0003 81.7761C64.7347 85.5264 70.7172 87.772 77.2268 87.772C92.5652 87.772 105 75.3385 105 59.9998C105 44.6613 92.5652 32.2269 77.2268 32.2269C70.7172 32.2269 64.7347 34.4722 60.0003 38.2237ZM98.4125 53.9276V57.7668C98.1588 57.4428 97.8452 57.1833 97.4704 56.9882C97.0952 56.7934 96.6474 56.6958 96.1256 56.6958C95.6143 56.6958 95.1381 56.7908 94.6977 56.9805C94.2566 57.1706 93.8722 57.435 93.543 57.7745C93.2133 58.1138 92.955 58.5177 92.7682 58.9861C92.5802 59.4545 92.4869 59.9675 92.4869 60.5244C92.4869 61.0817 92.5802 61.5941 92.7682 62.0628C92.9549 62.5312 93.2133 62.9351 93.543 63.2745C93.8722 63.6139 94.2566 63.878 94.6977 64.0683C95.1381 64.2581 95.6142 64.3531 96.1256 64.3531C96.6474 64.3531 97.0952 64.2567 97.4704 64.0642C97.8451 63.872 98.1587 63.6137 98.4125 63.2894V64.1628H100V53.9276H98.4125ZM98.3513 61.4512C98.2453 61.7348 98.0954 61.9805 97.903 62.1882C97.711 62.3957 97.4804 62.5591 97.2116 62.6782C96.9436 62.7972 96.6445 62.8566 96.3153 62.8566C95.9712 62.8566 95.6633 62.795 95.3924 62.6704C95.1215 62.5466 94.8927 62.3793 94.7047 62.1689C94.518 61.959 94.3733 61.7123 94.2724 61.4285C94.1709 61.1448 94.1203 60.8437 94.1203 60.5245C94.1203 60.2056 94.1709 59.9042 94.2724 59.6205C94.3734 59.3368 94.518 59.0902 94.7047 58.8801C94.8927 58.6699 95.1215 58.5029 95.3924 58.3786C95.6633 58.2547 95.9712 58.1924 96.3153 58.1924C96.6445 58.1924 96.9437 58.252 97.2116 58.3709C97.4804 58.4904 97.7109 58.6534 97.903 58.861C98.0954 59.0688 98.2453 59.3144 98.3513 59.598C98.4581 59.8815 98.511 60.1905 98.511 60.5246C98.5111 60.8586 98.4581 61.1675 98.3513 61.4512ZM53.8364 62.8565C54.0842 62.8565 54.3361 62.8085 54.5921 62.7121C54.7623 62.6481 54.9236 62.5742 55.0769 62.4925L55.6199 63.8217C55.4095 63.9395 55.1842 64.0466 54.9413 64.1405C54.5743 64.2824 54.1604 64.3532 53.6998 64.3532C52.8736 64.3532 52.232 64.1241 51.7738 63.6655C51.3155 63.2077 51.0861 62.4947 51.0861 61.5273V58.329H49.6351V56.8858H51.0861V54.6826H52.6812V56.8858H55.2314V58.3288H52.6812V61.4966C52.6812 61.74 52.7117 61.9475 52.7723 62.1199C52.8334 62.292 52.9159 62.4323 53.0196 62.5412C53.1234 62.6502 53.245 62.7303 53.3839 62.7804C53.5234 62.8312 53.6739 62.8565 53.8364 62.8565ZM29.8483 56.9083C30.1986 57.0503 30.5011 57.2492 30.7563 57.5048C31.0109 57.7606 31.2084 58.0659 31.3478 58.4202C31.4877 58.7748 31.5574 59.1648 31.5574 59.5901V64.1631H30.0134V60.1141C30.0134 59.5014 29.8699 59.0303 29.5834 58.7013C29.2965 58.3722 28.8933 58.2075 28.3739 58.2075C28.1238 58.2075 27.8886 58.2491 27.6681 58.3326C27.4477 58.4164 27.2554 58.5392 27.0908 58.7013C26.9267 58.8634 26.7957 59.0647 26.6978 59.3052C26.5995 59.5458 26.5508 59.8205 26.5508 60.1297V64.1631H25.0066V60.1141C25.0066 59.5014 24.8635 59.0303 24.5765 58.7013C24.2899 58.3722 23.8868 58.2075 23.3673 58.2075C23.1174 58.2075 22.8821 58.2491 22.6613 58.3326C22.4409 58.4164 22.2484 58.5392 22.0844 58.7013C21.9199 58.8634 21.7889 59.0647 21.6909 59.3052C21.5929 59.5458 21.5439 59.8205 21.5439 60.1297V64.1632H20V56.8857H21.529V57.7747C21.6712 57.562 21.8291 57.3859 22.0033 57.2467C22.1774 57.1073 22.3599 56.9972 22.5513 56.9161C22.7423 56.8353 22.9346 56.7784 23.1282 56.7452C23.3219 56.7124 23.5093 56.6958 23.6908 56.6958C24.2299 56.6958 24.7092 56.811 25.128 57.0414C25.5472 57.272 25.8791 57.59 26.1245 57.9948C26.2761 57.7365 26.4552 57.5226 26.661 57.3528C26.867 57.1835 27.0841 57.0503 27.3119 56.9541C27.5397 56.858 27.7725 56.7911 28.0101 56.753C28.2477 56.7147 28.477 56.6958 28.6974 56.6958C29.1141 56.6958 29.4977 56.7667 29.8483 56.9083ZM37.9562 56.9882C38.3312 57.1833 38.6451 57.4428 38.8983 57.7668V56.8855H40.4861V64.1628H38.8983V63.2894C38.6451 63.6137 38.331 63.872 37.9562 64.0642C37.5813 64.2567 37.1332 64.3531 36.6118 64.3531C36.0999 64.3531 35.6243 64.2581 35.1835 64.0684C34.743 63.878 34.358 63.6139 34.0291 63.2745C33.6995 62.9351 33.4412 62.5312 33.2539 62.0628C33.0668 61.5941 32.973 61.0817 32.973 60.5244C32.973 59.9675 33.0667 59.4545 33.2539 58.9861C33.4414 58.5177 33.6996 58.1138 34.0291 57.7745C34.3581 57.435 34.743 57.1706 35.1835 56.9805C35.6243 56.7908 36.0999 56.6958 36.6118 56.6958C37.1333 56.6958 37.5813 56.7934 37.9562 56.9882ZM38.3893 62.1882C38.5818 61.9805 38.7313 61.7349 38.8377 61.4512C38.9439 61.1675 38.9969 60.8586 38.9969 60.5246C38.9969 60.1906 38.9439 59.8815 38.8377 59.598C38.7313 59.3144 38.5817 59.0688 38.3893 58.861C38.1967 58.6534 37.9666 58.4904 37.698 58.3709C37.4298 58.252 37.1307 58.1924 36.8018 58.1924C36.4573 58.1924 36.1495 58.2547 35.8786 58.3786C35.6077 58.5029 35.3785 58.6699 35.1914 58.8801C35.0038 59.0902 34.8597 59.3368 34.7584 59.6205C34.657 59.9042 34.6064 60.2056 34.6064 60.5245C34.6064 60.8437 34.6569 61.1448 34.7584 61.4285C34.8597 61.7123 35.0038 61.959 35.1914 62.1689C35.3784 62.3793 35.6077 62.5466 35.8786 62.6704C36.1495 62.795 36.4573 62.8566 36.8018 62.8566C37.1307 62.8566 37.4297 62.7972 37.698 62.6782C37.9665 62.5591 38.1967 62.3957 38.3893 62.1882ZM47.7841 60.513C47.3384 60.1662 46.7182 59.9344 45.9228 59.8179L45.171 59.704C45.0039 59.6787 44.8471 59.6496 44.7 59.6165C44.553 59.5838 44.4267 59.5393 44.3202 59.4838C44.2135 59.428 44.1288 59.3571 44.0654 59.2709C44.002 59.1847 43.9703 59.0786 43.9703 58.9519C43.9703 58.6936 44.0907 58.4846 44.3317 58.325C44.5722 58.1657 44.9099 58.0859 45.3458 58.0859C45.5734 58.0859 45.7977 58.106 46.0179 58.1466C46.2381 58.1871 46.4474 58.2376 46.6445 58.2984C46.8421 58.3592 47.0221 58.4265 47.1841 58.5C47.3461 58.5732 47.4827 58.6431 47.594 58.7086L48.2783 57.4705C47.8985 57.2274 47.4552 57.0387 46.9484 56.9047C46.4423 56.7705 45.9027 56.7032 45.3303 56.7032C44.8645 56.7032 44.4466 56.7577 44.0771 56.8666C43.7077 56.9755 43.3923 57.1299 43.1311 57.33C42.8706 57.5301 42.6705 57.7745 42.531 58.0629C42.3922 58.3519 42.3224 58.6758 42.3224 59.0355C42.3224 59.6229 42.531 60.0977 42.9489 60.4598C43.367 60.8222 43.9807 61.0584 44.7913 61.1703L45.5511 61.269C45.9864 61.3294 46.3057 61.4275 46.5081 61.5612C46.7104 61.6955 46.8126 61.8664 46.8126 62.0739C46.8126 62.3475 46.6725 62.5639 46.3945 62.7237C46.1155 62.8831 45.7027 62.9631 45.1564 62.9631C44.8571 62.9631 44.5902 62.9425 44.3545 62.9021C44.1193 62.8615 43.9037 62.807 43.7089 62.7387C43.5141 62.6703 43.3394 62.592 43.1849 62.5031C43.0304 62.4144 42.8874 62.3198 42.7553 62.2184L42.0186 63.4112C42.2822 63.6086 42.5582 63.7684 42.8464 63.8897C43.1353 64.0113 43.4188 64.1063 43.6973 64.1746C43.9757 64.2429 44.2391 64.2884 44.4876 64.3113C44.7356 64.3341 44.9535 64.3455 45.1407 64.3455C45.6625 64.3455 46.1294 64.2873 46.5427 64.1709C46.9548 64.0541 47.3019 63.8909 47.5832 63.6808C47.8639 63.4704 48.0796 63.2203 48.2288 62.9285C48.3781 62.6375 48.453 62.3172 48.453 61.9676C48.4527 61.345 48.2297 60.8597 47.7841 60.513ZM61.5633 56.973C61.9865 57.1581 62.3485 57.4186 62.65 57.7554C62.9508 58.0923 63.1865 58.495 63.3565 58.9633C63.5265 59.4321 63.6113 59.9498 63.6113 60.517C63.6113 60.6182 63.6085 60.7195 63.6033 60.8212C63.5987 60.9222 63.5905 61.0183 63.5808 61.1096H58.2023C58.253 61.4386 58.347 61.7199 58.4836 61.9529C58.6202 62.1853 58.7844 62.3772 58.977 62.5264C59.1695 62.6758 59.3845 62.7859 59.6226 62.8567C59.8606 62.9277 60.1086 62.9629 60.3673 62.9629C60.7316 62.9629 61.0978 62.896 61.4649 62.7618C61.8321 62.6276 62.1677 62.4391 62.4714 62.1959L63.2612 63.3278C62.8156 63.7076 62.3435 63.9734 61.8449 64.1252C61.3456 64.2771 60.8205 64.3532 60.2682 64.3532C59.7211 64.3532 59.2203 64.2621 58.7643 64.0796C58.3088 63.8977 57.9162 63.6389 57.587 63.3045C57.2573 62.9704 57.0019 62.5678 56.8192 62.0971C56.637 61.626 56.5458 61.1019 56.5458 60.5243C56.5458 59.9572 56.6346 59.4382 56.8116 58.967C56.9891 58.4959 57.237 58.0923 57.5563 57.7554C57.8752 57.4186 58.2561 57.1581 58.6995 56.973C59.1427 56.7882 59.6328 56.6958 60.1694 56.6958C60.6755 56.6958 61.1407 56.7882 61.5633 56.973ZM58.4221 59.1759C58.3207 59.3962 58.2498 59.6382 58.2094 59.9015H61.9846C61.8986 59.3343 61.6964 58.8939 61.377 58.5798C61.0582 58.2658 60.6454 58.1087 60.1388 58.1087C59.8552 58.1087 59.6032 58.1517 59.383 58.2376C59.1628 58.3238 58.9732 58.4466 58.8135 58.6063C58.6539 58.7657 58.5234 58.9556 58.4221 59.1759ZM83.7433 57.7668C83.4897 57.4428 83.176 57.1833 82.8013 56.9882C82.4261 56.7934 81.9781 56.6958 81.4569 56.6958C80.9451 56.6958 80.4688 56.7908 80.0285 56.9805C79.588 57.1706 79.203 57.435 78.8738 57.7745C78.5446 58.1139 78.2864 58.5177 78.099 58.9861C77.9111 59.4545 77.8177 59.9675 77.8177 60.5244C77.8177 61.0817 77.9111 61.5941 78.099 62.0628C78.2864 62.5312 78.5446 62.9351 78.8738 63.2745C79.203 63.6139 79.588 63.878 80.0285 64.0684C80.4689 64.2581 80.9451 64.3531 81.4569 64.3531C81.978 64.3531 82.4259 64.2567 82.8013 64.0642C83.1759 63.872 83.4896 63.6137 83.7433 63.2894V64.1628H85.3309V56.8855H83.7433V57.7668ZM83.6828 61.4512C83.576 61.7349 83.4268 61.9805 83.2343 62.1882C83.0417 62.3957 82.8111 62.5591 82.5431 62.6782C82.2743 62.7972 81.9758 62.8566 81.6467 62.8566C81.3021 62.8566 80.9948 62.795 80.7239 62.6704C80.453 62.5466 80.2235 62.3793 80.0362 62.1689C79.8489 61.959 79.7046 61.7123 79.6032 61.4285C79.5017 61.1448 79.4516 60.8437 79.4516 60.5245C79.4516 60.2056 79.5017 59.9042 79.6032 59.6205C79.7048 59.3368 79.8489 59.0902 80.0362 58.8801C80.2235 58.6699 80.453 58.5029 80.7239 58.3786C80.9948 58.2547 81.3021 58.1924 81.6467 58.1924C81.9758 58.1924 82.2745 58.252 82.5431 58.3709C82.8111 58.4904 83.0417 58.6534 83.2343 58.861C83.4268 59.0688 83.5762 59.3144 83.6828 59.598C83.7889 59.8815 83.8419 60.1906 83.8419 60.5246C83.8418 60.8586 83.7888 61.1675 83.6828 61.4512ZM68.9258 56.6957C68.4802 56.6957 68.0778 56.7768 67.7182 56.9388C67.3584 57.1009 67.0576 57.491 66.8142 57.8405V56.8858H65.3726V64.1633H66.8293V60.1599C66.8293 59.8508 66.8725 59.5749 66.9583 59.3317C67.0443 59.0886 67.1636 58.8838 67.3157 58.7163C67.4673 58.5493 67.6495 58.4228 67.8628 58.3369C68.075 58.2507 68.3079 58.2075 68.5614 58.2075C68.754 58.2075 68.9615 58.2302 69.1841 58.2757C69.2976 58.2989 69.4042 58.3276 69.5035 58.3617L69.9726 56.8426C69.8452 56.8023 69.7161 56.7679 69.5837 56.7452C69.3881 56.7122 69.169 56.6957 68.9258 56.6957ZM89.7886 56.9388C90.1485 56.7768 90.5507 56.6957 90.9969 56.6957C91.2395 56.6957 91.4586 56.7122 91.6541 56.7452C91.7866 56.7679 91.9157 56.8023 92.0431 56.8426L91.5739 58.3617C91.4747 58.3276 91.3686 58.2989 91.2551 58.2757C91.0319 58.2302 90.8244 58.2075 90.6319 58.2075C90.3783 58.2075 90.1453 58.2507 89.9333 58.3369C89.7205 58.4228 89.5378 58.5493 89.3862 58.7163C89.234 58.8838 89.1153 59.0886 89.0293 59.3317C88.9429 59.5749 88.8997 59.8508 88.8997 60.1599V64.1633H87.4436V56.8858H88.8847V57.8405C89.1281 57.491 89.429 57.1009 89.7886 56.9388ZM73.4477 58.3631C73.1686 58.477 72.9282 58.6366 72.7259 58.8417C72.5235 59.0469 72.3639 59.2925 72.2469 59.5788C72.1305 59.8648 72.0722 60.1802 72.0722 60.5245C72.0722 60.8689 72.1305 61.1843 72.2469 61.4702C72.3638 61.7564 72.5235 62.0019 72.7259 62.2069C72.9282 62.412 73.1686 62.5718 73.4477 62.6853C73.7261 62.7995 74.0276 62.8565 74.3516 62.8565C74.7078 62.8565 75.0394 62.7995 75.346 62.6853C75.6422 62.5752 75.8989 62.4217 76.1167 62.2264L76.8805 63.4976C76.5946 63.727 76.2712 63.9144 75.9127 64.0608C75.4336 64.2554 74.9136 64.3531 74.3516 64.3531C73.7889 64.3531 73.2689 64.2554 72.79 64.0608C72.3115 63.8654 71.8993 63.5972 71.5523 63.2551C71.2052 62.9135 70.933 62.5095 70.7354 62.0437C70.5377 61.578 70.439 61.0712 70.439 60.5244C70.439 59.9775 70.5377 59.4709 70.7354 59.005C70.9331 58.5392 71.2052 58.1351 71.5523 57.7934C71.8993 57.4516 72.3115 57.1833 72.79 56.9883C73.2689 56.7934 73.7889 56.6957 74.3516 56.6957C74.9136 56.6957 75.4336 56.7934 75.9127 56.9883C76.2713 57.1345 76.5947 57.3221 76.8805 57.5511L76.1167 58.8223C75.8989 58.6268 75.6422 58.4731 75.346 58.3631C75.0392 58.2493 74.7078 58.1921 74.3516 58.1921C74.0276 58.1921 73.7261 58.2491 73.4477 58.3631Z" fill="white"/>
</g>
</g>
<defs>
<clipPath id="clip0_33_2472">
<rect width="120" height="120" fill="white"/>
</clipPath>
</defs>
</svg>
