<svg width="80" height="80" viewBox="0 0 80 80" fill="none" xmlns="http://www.w3.org/2000/svg">
<g id="Microsoft Store" clip-path="url(#clip0_33_2468)">
<g id="Microsoft Store_2">
<rect id="Rectangle" width="80" height="80" rx="40" fill="#0078D7"/>
<path id="Vector" d="M33.4755 17.387C34.9484 15.7855 37.0312 14.7505 39.2024 14.5745C39.732 14.5504 40.2639 14.5545 40.7935 14.5761C42.9462 14.7433 45.0089 15.767 46.4778 17.3444C47.9676 18.9146 48.8387 21.0488 48.8813 23.212C48.8917 24.2381 48.8829 25.2643 48.8853 26.2904C49.5016 26.2904 50.1171 26.2904 50.7326 26.2904C50.7278 25.2128 50.7431 24.1353 50.7246 23.0585C50.6619 21.2818 50.0271 19.547 48.9809 18.1158C50.7785 19.4393 52.0376 21.4642 52.4298 23.662C52.5985 24.5274 52.5776 25.4129 52.5752 26.2904C56.1583 26.2912 59.7413 26.2904 63.3252 26.2904C63.3276 36.4538 63.3284 46.6164 63.326 56.7798C63.3244 57.3977 63.3879 58.0389 63.1685 58.632C62.7506 59.9 61.5132 60.8827 60.1648 60.9044C46.7189 60.9004 33.273 60.9028 19.8279 60.9028C18.1709 60.8803 16.6972 59.3937 16.6667 57.7408C16.6683 47.2576 16.6659 36.7736 16.6675 26.2904C21.4816 26.2904 26.2949 26.2904 31.1082 26.2904C31.1106 25.2659 31.1026 24.2413 31.1122 23.2176C31.1516 21.0721 32.009 18.9539 33.4755 17.387ZM38.8577 16.4693C37.2626 16.7249 35.768 17.5549 34.7041 18.7707C33.5984 20.021 32.9628 21.6756 32.9523 23.3446C32.9483 24.3265 32.9515 25.3085 32.9507 26.2904C33.5663 26.2904 34.1826 26.2904 34.7981 26.2904C34.7997 25.7657 34.7893 25.241 34.8158 24.7162C34.8785 23.6563 35.1348 22.6085 35.5671 21.6386C36.394 19.6514 38.3185 18.2404 40.3981 17.804C41.7915 17.514 43.2885 17.6425 44.5822 18.2508C44.1515 18.2259 43.7216 18.1809 43.2901 18.213C41.6115 18.3014 39.9746 19.019 38.7733 20.197C37.4908 21.4345 36.7122 23.1766 36.6471 24.9581C36.6342 25.4017 36.6431 25.846 36.6407 26.2904C40.108 26.2904 43.5754 26.2904 47.0435 26.2904C47.0435 25.388 47.0435 24.4856 47.0435 23.584C47.0451 22.4671 46.784 21.3501 46.2817 20.3529C45.5497 18.8848 44.2994 17.6835 42.8032 17.0117C41.5769 16.4605 40.1884 16.2411 38.8577 16.4693ZM30.2034 33.8117C30.2042 36.8258 30.2018 39.8392 30.205 42.8533C33.2175 42.8509 36.2309 42.8525 39.2442 42.8517C39.2442 39.8392 39.2426 36.8258 39.245 33.8125C36.2309 33.8101 33.2175 33.8125 30.2034 33.8117ZM40.7485 33.8133C40.7533 36.8258 40.7501 39.8392 40.7501 42.8517C43.7626 42.8533 46.7759 42.8501 49.7885 42.8541C49.7933 39.8392 49.7901 36.825 49.7901 33.8109C46.7759 33.8133 43.7626 33.8085 40.7485 33.8133ZM30.205 44.3576C30.2026 47.3709 30.205 50.385 30.2034 53.3984C33.2175 53.3976 36.2317 53.4016 39.245 53.3968C39.2426 50.3842 39.245 47.3709 39.2442 44.3584C36.2309 44.3576 33.2175 44.3592 30.205 44.3576ZM40.7501 44.3584C40.7501 47.3717 40.7517 50.3842 40.7493 53.3976C43.7634 53.4008 46.7767 53.3984 49.7909 53.3984C49.7901 50.385 49.7933 47.3709 49.7893 44.3576C46.7767 44.36 43.7634 44.3576 40.7501 44.3584Z" fill="white"/>
</g>
</g>
<defs>
<clipPath id="clip0_33_2468">
<rect width="80" height="80" fill="white"/>
</clipPath>
</defs>
</svg>
