<svg width="36" height="36" viewBox="0 0 36 36" fill="none" xmlns="http://www.w3.org/2000/svg">
<g id="PayPal" clip-path="url(#clip0_15_120)">
<g id="PayPal_2">
<rect id="Rectangle" width="36" height="36" rx="18" fill="#082069"/>
<g id="Group">
<path id="Vector" opacity="0.68" d="M26.3996 12.4666C26.6742 10.7161 26.3978 9.52532 25.451 8.44636C24.4088 7.25877 22.5258 6.75 20.1168 6.75H13.1237C12.6314 6.75 12.212 7.1082 12.1355 7.59474L9.22335 26.0599C9.16606 26.4243 9.44771 26.7536 9.81623 26.7536H14.1334L13.8355 28.6431C13.7853 28.9619 14.0315 29.25 14.3541 29.25H17.9932C18.4238 29.25 18.7905 28.9367 18.8577 28.5111L18.8934 28.326L19.5789 23.979L19.6231 23.7388C19.6903 23.3134 20.0569 22.9997 20.4876 22.9997H21.0318C24.5573 22.9997 27.3177 21.5676 28.1241 17.4255C28.4613 15.6947 28.2869 14.25 27.3956 13.2343C27.1263 12.9277 26.7908 12.6737 26.3996 12.4666Z" fill="white"/>
<path id="Vector_2" opacity="0.7" d="M26.3996 12.4666C26.6742 10.7161 26.3978 9.52532 25.451 8.44636C24.4088 7.25877 22.5258 6.75 20.1168 6.75H13.1237C12.6314 6.75 12.212 7.1082 12.1355 7.59474L9.22335 26.0599C9.16606 26.4243 9.44771 26.7536 9.81623 26.7536H14.1334L15.2179 19.8767L15.1842 20.0924C15.261 19.6061 15.6765 19.2476 16.169 19.2476H18.221C22.2508 19.2476 25.4064 17.6104 26.3281 12.8756C26.3556 12.7358 26.3787 12.5999 26.3996 12.4666Z" fill="white"/>
<path id="Vector_3" d="M16.383 12.4897C16.4291 12.1973 16.617 11.9576 16.8698 11.8366C16.9846 11.7815 17.1132 11.7508 17.2477 11.7508H22.7294C23.3788 11.7508 23.9843 11.7935 24.5378 11.8826C24.6959 11.9081 24.8499 11.9374 24.9996 11.9706C25.149 12.0039 25.2943 12.0407 25.4348 12.082C25.5051 12.1024 25.5741 12.1242 25.6422 12.1466C25.914 12.2369 26.1672 12.3433 26.4001 12.4668C26.6746 10.7163 26.3982 9.52555 25.4515 8.44659C24.4088 7.25877 22.5258 6.75 20.1168 6.75H13.1237C12.6314 6.75 12.212 7.1082 12.1355 7.59474L9.22335 26.0599C9.16606 26.4243 9.44771 26.7536 9.81623 26.7536H14.1334L15.2179 19.8767L16.383 12.4897Z" fill="white"/>
</g>
</g>
</g>
<defs>
<clipPath id="clip0_15_120">
<rect width="36" height="36" fill="white"/>
</clipPath>
</defs>
</svg>
