<svg width="32" height="32" viewBox="0 0 32 32" fill="none" xmlns="http://www.w3.org/2000/svg">
<g clip-path="url(#clip0_15_127)">
<rect width="32" height="32" rx="16" fill="url(#paint0_radial_15_127)"/>
<path fill-rule="evenodd" clip-rule="evenodd" d="M26.6667 16.0002C26.6667 21.8912 21.891 26.6668 16 26.6668C10.109 26.6668 5.33333 21.8912 5.33333 16.0002C5.33333 10.1091 10.109 5.3335 16 5.3335C21.891 5.3335 26.6667 10.1091 26.6667 16.0002ZM25.8667 16.0002C25.8667 21.4494 21.4492 25.8669 16 25.8669C10.5508 25.8669 6.13333 21.4494 6.13333 16.0002C6.13333 10.551 10.5508 6.13354 16 6.13354C21.4492 6.13354 25.8667 10.551 25.8667 16.0002Z" fill="white"/>
<path d="M16.0167 8.53356C15.95 8.53356 15.8917 8.48358 15.8917 8.41692V6.67524C15.8917 6.60857 15.95 6.55859 16.0167 6.55859C16.0834 6.55859 16.1417 6.60857 16.1417 6.67524V8.41692C16.1333 8.48358 16.0834 8.53356 16.0167 8.53356Z" fill="white"/>
<path d="M16.0167 8.54195C15.9417 8.54195 15.8834 8.48363 15.8834 8.41696V6.67528C15.8834 6.60862 15.9417 6.55029 16.0167 6.55029C16.0917 6.55029 16.15 6.60862 16.15 6.67528V8.41696C16.15 8.48363 16.0833 8.54195 16.0167 8.54195ZM16.0167 6.5669C15.9584 6.5669 15.9 6.61696 15.9 6.67528V8.41696C15.9 8.47528 15.95 8.52535 16.0167 8.52535C16.075 8.52535 16.1333 8.47528 16.1333 8.41696V6.67528C16.1251 6.61696 16.075 6.5669 16.0167 6.5669Z" fill="white"/>
<path d="M16.8501 7.60008C16.7834 7.59173 16.7334 7.54175 16.7334 7.47509L16.7917 6.70003C16.8 6.63345 16.8584 6.58339 16.9251 6.59173C16.9917 6.60007 17.0417 6.65014 17.0417 6.71681L16.9834 7.49177C16.9751 7.55844 16.9167 7.60842 16.8501 7.60016V7.60008Z" fill="white"/>
<path d="M16.8501 7.60882C16.775 7.60048 16.7251 7.54216 16.7251 7.47549L16.7834 6.70044C16.7917 6.63386 16.8501 6.57553 16.9251 6.58379C17 6.59213 17.0501 6.65054 17.0501 6.71712L16.9917 7.49218C16.9834 7.56719 16.9251 7.61717 16.8501 7.60882ZM16.9251 6.60048C16.8667 6.60048 16.8083 6.6422 16.8083 6.70052L16.75 7.47558C16.75 7.53381 16.7917 7.58388 16.8584 7.59213C16.9167 7.59213 16.9751 7.5505 16.9751 7.49218L17.0334 6.71712C17.0334 6.6588 16.9834 6.60882 16.925 6.60048H16.9251Z" fill="white"/>
<path d="M17.4751 8.68364C17.4083 8.66695 17.3667 8.60863 17.3751 8.54196L17.7167 6.83357C17.7334 6.76699 17.7917 6.72527 17.8584 6.74196C17.9251 6.75865 17.9667 6.81697 17.9584 6.88364L17.6167 8.59203C17.6083 8.65026 17.5417 8.69198 17.475 8.68364H17.4751Z" fill="white"/>
<path d="M17.4751 8.69207C17.4 8.67538 17.3584 8.60871 17.3667 8.54205L17.7084 6.83366C17.7251 6.76708 17.7917 6.71702 17.8667 6.7337C17.9417 6.75039 17.9834 6.81706 17.9751 6.88373L17.6334 8.59211C17.6167 8.65869 17.55 8.70041 17.4751 8.69207ZM17.8667 6.75039C17.8083 6.74205 17.75 6.77534 17.7333 6.83375L17.3917 8.54213C17.3834 8.60037 17.4167 8.65869 17.4834 8.67547C17.5417 8.68372 17.6 8.65035 17.6167 8.59203L17.9584 6.88373C17.9667 6.81706 17.9251 6.76708 17.8667 6.75039Z" fill="white"/>
<path d="M18.475 7.93337C18.4591 7.92954 18.4442 7.92262 18.431 7.91301C18.4178 7.9034 18.4066 7.89128 18.3981 7.87735C18.3896 7.86341 18.3839 7.84794 18.3814 7.83181C18.3789 7.81568 18.3795 7.79921 18.3834 7.78334L18.5917 7.03341C18.6083 6.96674 18.675 6.93337 18.7417 6.95005C18.8083 6.96674 18.8501 7.03341 18.8334 7.10008L18.625 7.8501C18.6083 7.91668 18.5417 7.95005 18.475 7.93337Z" fill="white"/>
<path d="M18.475 7.94216C18.4083 7.92547 18.3584 7.85046 18.3834 7.78388L18.5917 7.03377C18.6083 6.96719 18.6834 6.92547 18.75 6.94216C18.8167 6.95885 18.8667 7.03386 18.8417 7.10044L18.6334 7.85054C18.6167 7.91712 18.55 7.95884 18.4751 7.94216H18.475ZM18.75 6.96719C18.6917 6.9505 18.625 6.98388 18.6083 7.0422L18.4001 7.79214C18.3834 7.85046 18.4167 7.90887 18.4834 7.92547C18.5417 7.94216 18.6083 7.90887 18.625 7.85054L18.8334 7.10044C18.8417 7.0422 18.8084 6.98388 18.75 6.9671V6.96719Z" fill="white"/>
<path d="M18.8834 9.1088C18.8167 9.08377 18.7917 9.00876 18.8167 8.95044L19.4833 7.34209C19.5083 7.28377 19.5834 7.25039 19.6416 7.28377C19.7084 7.30871 19.7334 7.38381 19.7084 7.44205L19.0417 9.05039C19.0168 9.1088 18.9417 9.14209 18.8834 9.1088H18.8834Z" fill="white"/>
<path d="M18.8834 9.11687C18.8513 9.10467 18.8255 9.08027 18.8114 9.04902C18.7973 9.01777 18.7962 8.98222 18.8083 8.95016L19.475 7.34181C19.5 7.27515 19.5751 7.25012 19.6501 7.27515C19.6821 7.28735 19.708 7.31175 19.722 7.343C19.7361 7.37425 19.7372 7.4098 19.7251 7.44186L19.0584 9.0502C19.025 9.11687 18.95 9.15016 18.8834 9.11687ZM19.6417 7.29184C19.5834 7.26689 19.5167 7.29184 19.4917 7.35016L18.825 8.9585C18.8001 9.01683 18.8334 9.07515 18.8917 9.10018C18.95 9.12513 19.0167 9.10018 19.0417 9.04186L19.7084 7.43351C19.7251 7.38345 19.7 7.31678 19.6417 7.29184Z" fill="white"/>
<path d="M20.0084 8.57515C19.95 8.54177 19.925 8.4751 19.95 8.41678L20.3 7.72517C20.3333 7.66676 20.4 7.64173 20.4667 7.67511C20.5251 7.70848 20.55 7.77515 20.5251 7.83339L20.175 8.52508C20.1417 8.58341 20.075 8.60852 20.0083 8.57515H20.0084Z" fill="white"/>
<path d="M20.0084 8.58331C19.9417 8.54993 19.9167 8.47492 19.95 8.40826L20.3 7.71664C20.3333 7.64989 20.4084 7.62495 20.475 7.65824C20.5417 7.69161 20.5667 7.76662 20.5333 7.83329L20.1834 8.5249C20.15 8.59157 20.075 8.6166 20.0083 8.58323L20.0084 8.58331ZM20.4668 7.67492C20.4083 7.64998 20.3417 7.66658 20.3167 7.7249L19.9667 8.4166C19.9418 8.46658 19.9667 8.53325 20.0167 8.56662C20.075 8.59157 20.1417 8.57497 20.1667 8.51664L20.5167 7.82495C20.5417 7.77497 20.5167 7.7083 20.4668 7.67492Z" fill="white"/>
<path d="M20.1751 9.80862C20.1167 9.76699 20.1 9.69198 20.1417 9.642L21.1084 8.20028C21.1417 8.14196 21.2168 8.13361 21.275 8.16699C21.3334 8.20862 21.35 8.28363 21.3084 8.33361L20.3417 9.77533C20.3084 9.83365 20.2334 9.85034 20.1751 9.80862Z" fill="white"/>
<path d="M20.1751 9.81676C20.1167 9.77512 20.1 9.69177 20.1334 9.63344L21.1 8.19172C21.1417 8.1334 21.2167 8.11671 21.2834 8.15843C21.3417 8.20007 21.3584 8.28342 21.3251 8.34175L20.3584 9.78347C20.3167 9.84179 20.2334 9.85839 20.1751 9.81676ZM21.275 8.17512C21.2251 8.14175 21.15 8.15009 21.1167 8.20007L20.15 9.64179C20.1167 9.69168 20.1333 9.75843 20.1834 9.79172C20.2334 9.8251 20.3084 9.81676 20.3417 9.76678L21.3084 8.3334C21.3417 8.28342 21.3251 8.20841 21.275 8.17512Z" fill="white"/>
<path d="M21.3917 9.49999C21.3418 9.45827 21.3251 9.38326 21.3667 9.33328L21.8501 8.72493C21.8917 8.67504 21.9667 8.66661 22.0167 8.70833C22.0667 8.74997 22.0834 8.82498 22.0416 8.87496L21.5584 9.4833C21.5167 9.53328 21.4417 9.54162 21.3917 9.49999H21.3917Z" fill="white"/>
<path d="M21.3834 9.5087C21.3251 9.46698 21.3167 9.38362 21.3584 9.3253L21.8417 8.71704C21.8834 8.65863 21.9667 8.65029 22.025 8.70035C22.0833 8.74199 22.0917 8.82534 22.05 8.88367L21.5667 9.49201C21.5251 9.55033 21.4417 9.55868 21.3834 9.5087ZM22.0083 8.71696C21.9584 8.67532 21.8917 8.68367 21.8501 8.73364L21.3667 9.34199C21.3334 9.39197 21.3418 9.45863 21.3917 9.50027C21.4417 9.54199 21.5084 9.53365 21.55 9.48367L22.0334 8.87532C22.0667 8.82534 22.0583 8.75033 22.0084 8.71704L22.0083 8.71696Z" fill="white"/>
<path d="M21.3084 10.7503C21.2584 10.7004 21.2584 10.6253 21.3084 10.5836L22.5417 9.35868C22.5917 9.3087 22.6667 9.31695 22.7084 9.35868C22.75 9.40031 22.7584 9.48366 22.7084 9.5253L21.4834 10.7503C21.4334 10.8003 21.3584 10.8003 21.3084 10.7503Z" fill="white"/>
<path d="M21.3 10.7584C21.276 10.7339 21.2625 10.701 21.2625 10.6667C21.2625 10.6324 21.276 10.5995 21.3 10.5751L22.5333 9.35005C22.5578 9.32598 22.5907 9.3125 22.625 9.3125C22.6593 9.3125 22.6923 9.32598 22.7167 9.35005C22.7408 9.3745 22.7542 9.40741 22.7542 9.4417C22.7542 9.47599 22.7408 9.5089 22.7167 9.53336L21.4834 10.7583C21.4589 10.7823 21.426 10.7958 21.3917 10.7958C21.3574 10.7958 21.3245 10.7823 21.3 10.7583V10.7584ZM22.7084 9.35839C22.6668 9.31667 22.5917 9.31667 22.5501 9.35839L21.3167 10.5833C21.275 10.6251 21.275 10.7001 21.3167 10.7417C21.3584 10.7834 21.4334 10.7834 21.475 10.7417L22.7084 9.51676C22.75 9.47503 22.75 9.40837 22.7084 9.35839Z" fill="white"/>
<path d="M22.5584 10.6836C22.5167 10.6336 22.5167 10.5586 22.5667 10.5169L23.1584 10.0169C23.2083 9.97528 23.2834 9.98353 23.3251 10.0336C23.3667 10.0836 23.3667 10.1586 23.3167 10.2002L22.7251 10.7003C22.675 10.7419 22.6 10.7336 22.5584 10.6836Z" fill="white"/>
<path d="M22.55 10.6917C22.5 10.6334 22.5084 10.5501 22.5584 10.5084L23.15 10.0084C23.2 9.95842 23.2834 9.96676 23.3333 10.0251C23.3834 10.0834 23.3751 10.1668 23.3251 10.2084L22.7333 10.7084C22.6834 10.7583 22.6 10.7501 22.5501 10.6917H22.55ZM23.3167 10.0334C23.275 9.98345 23.2083 9.98345 23.1584 10.0167L22.5667 10.5168C22.5251 10.5584 22.5167 10.6251 22.5584 10.6751C22.6 10.725 22.6668 10.725 22.7166 10.6917L23.3084 10.1917C23.3584 10.1501 23.3584 10.0834 23.3167 10.0334Z" fill="white"/>
<path d="M22.225 11.8836C22.1834 11.8253 22.2001 11.7503 22.2584 11.7169L23.7084 10.7503C23.7667 10.7169 23.8417 10.7336 23.875 10.7837C23.9167 10.842 23.9 10.917 23.8417 10.9503L22.3917 11.9169C22.3417 11.9503 22.2667 11.9336 22.225 11.8836Z" fill="white"/>
<path d="M22.2167 11.8836C22.1751 11.8253 22.1917 11.742 22.2501 11.7003L23.7 10.7336C23.7584 10.692 23.8417 10.7087 23.8834 10.7753C23.9251 10.8337 23.9083 10.917 23.8501 10.9586L22.4001 11.9254C22.3417 11.9671 22.2584 11.9504 22.2167 11.8837V11.8836ZM23.8667 10.792C23.8334 10.742 23.7667 10.7253 23.7167 10.7587L22.2667 11.7253C22.2168 11.7587 22.2 11.8253 22.2417 11.8836C22.275 11.9336 22.3417 11.9503 22.3917 11.917L23.8417 10.9503C23.8917 10.9087 23.9 10.8419 23.8667 10.792Z" fill="white"/>
<path d="M23.4668 12.0586C23.4334 12.0002 23.4501 11.9253 23.5084 11.8919L24.1834 11.5086C24.2417 11.4752 24.3167 11.5003 24.35 11.5585C24.3834 11.6169 24.3667 11.6918 24.3084 11.7252L23.6334 12.1086C23.5751 12.1419 23.5 12.117 23.4667 12.0585L23.4668 12.0586Z" fill="white"/>
<path d="M23.4584 12.0669C23.425 12.0002 23.4417 11.9252 23.5 11.8919L24.1751 11.5086C24.2334 11.4752 24.3167 11.5003 24.35 11.5585C24.3834 11.6253 24.3667 11.7003 24.3084 11.7336L23.6334 12.117C23.5751 12.1502 23.4917 12.1252 23.4584 12.0669ZM24.3417 11.5669C24.3084 11.5086 24.2417 11.4919 24.1917 11.5252L23.5167 11.9086C23.4668 11.9419 23.4501 12.0086 23.475 12.0585C23.5084 12.1169 23.5751 12.1336 23.625 12.1003L24.3 11.7169C24.35 11.6919 24.3667 11.6253 24.3417 11.5669Z" fill="white"/>
<path d="M22.9084 13.1669C22.8834 13.1002 22.9084 13.0335 22.975 13.0086L24.5834 12.3419C24.6417 12.3169 24.7167 12.3502 24.7417 12.4085C24.7667 12.4752 24.7417 12.5418 24.675 12.5668L23.0667 13.2334C23.0083 13.2585 22.9334 13.2334 22.9084 13.1669Z" fill="white"/>
<path d="M22.9 13.1751C22.8751 13.1086 22.9 13.0336 22.9667 13.0002L24.5751 12.3335C24.6071 12.3214 24.6426 12.3225 24.6739 12.3366C24.7051 12.3507 24.7295 12.3765 24.7417 12.4085C24.7667 12.4752 24.7417 12.5502 24.675 12.5835L23.0668 13.2502C23.0347 13.2623 22.9992 13.2612 22.9679 13.2471C22.9367 13.2331 22.9123 13.2072 22.9 13.1752V13.1751ZM24.7251 12.4169C24.7 12.3585 24.6334 12.3335 24.5834 12.3502L22.9751 13.0169C22.9167 13.0418 22.8917 13.1086 22.9167 13.1669C22.9417 13.2252 23.0083 13.2502 23.0584 13.2336L24.6667 12.5669C24.7251 12.5419 24.7501 12.4752 24.7251 12.4169Z" fill="white"/>
<path d="M24.0834 13.5832C24.0584 13.5165 24.0917 13.4499 24.1584 13.4249L24.8917 13.1832C24.95 13.1582 25.025 13.1998 25.0417 13.2582C25.0667 13.3248 25.0334 13.3915 24.9667 13.4165L24.2334 13.6583C24.1751 13.6832 24.1084 13.6499 24.0834 13.5832V13.5832Z" fill="white"/>
<path d="M24.075 13.5919C24.0501 13.5253 24.0834 13.4502 24.1585 13.4253L24.8917 13.1836C24.9584 13.1586 25.0334 13.2003 25.0584 13.267C25.0833 13.3336 25.0501 13.4086 24.975 13.4336L24.2417 13.6754C24.1751 13.692 24.1 13.6586 24.075 13.5919ZM25.0417 13.2754C25.025 13.217 24.9584 13.1836 24.9 13.2003L24.1667 13.442C24.1084 13.4586 24.0834 13.5253 24.1 13.5837C24.1167 13.642 24.1834 13.6753 24.2417 13.6586L24.975 13.417C25.0334 13.392 25.0584 13.3336 25.0417 13.2753V13.2754Z" fill="white"/>
<path d="M23.3334 14.5749C23.3167 14.5083 23.3584 14.4416 23.425 14.4333L25.1334 14.0999C25.2 14.0832 25.2584 14.1332 25.275 14.1999C25.2917 14.2665 25.2501 14.3332 25.1834 14.3416L23.475 14.6749C23.4083 14.6832 23.3417 14.6416 23.3333 14.5749H23.3334Z" fill="white"/>
<path d="M23.3167 14.575C23.3 14.5 23.35 14.4333 23.4167 14.4166L25.1251 14.0833C25.1917 14.0666 25.2584 14.1167 25.275 14.1917C25.2917 14.2666 25.2417 14.3333 25.175 14.35L23.4667 14.6833C23.4001 14.7 23.3333 14.65 23.3167 14.5749V14.575ZM25.2584 14.1999C25.2501 14.1416 25.1917 14.1 25.1334 14.1083L23.425 14.4417C23.3667 14.45 23.3251 14.5166 23.3417 14.575C23.35 14.6333 23.4083 14.675 23.4667 14.6666L25.175 14.3333C25.2334 14.3166 25.275 14.2583 25.2584 14.1999Z" fill="white"/>
<path d="M24.4001 15.2171C24.3917 15.1505 24.4334 15.0921 24.5 15.0838L25.2667 14.9921C25.3333 14.9838 25.3917 15.0338 25.4 15.1005C25.4083 15.1672 25.3667 15.2255 25.3 15.2338L24.5333 15.3254C24.475 15.3338 24.4083 15.2838 24.4 15.2171H24.4001Z" fill="white"/>
<path d="M24.3917 15.2172C24.3834 15.1421 24.4334 15.0755 24.5 15.0671L25.2667 14.9755C25.3333 14.9672 25.4 15.0172 25.4083 15.0922C25.4167 15.1672 25.3667 15.2338 25.3 15.2422L24.5333 15.3338C24.4667 15.3421 24.4 15.2922 24.3917 15.2172ZM25.4 15.1005C25.3917 15.0422 25.3334 14.9921 25.275 15.0005L24.5084 15.0922C24.4501 15.1005 24.4083 15.1588 24.4167 15.2172C24.425 15.2755 24.4834 15.3255 24.5417 15.3172L25.3084 15.2255C25.3667 15.2172 25.4083 15.1588 25.4001 15.1005H25.4Z" fill="white"/>
<path d="M23.4668 16.0254C23.4668 15.9587 23.5166 15.9004 23.5834 15.9004H25.3251C25.3917 15.9004 25.4417 15.9587 25.4417 16.0254C25.4417 16.092 25.3917 16.1504 25.3251 16.1504H23.5834C23.5167 16.1504 23.4668 16.092 23.4668 16.0254Z" fill="white"/>
<path d="M23.4584 16.0249C23.4584 15.9499 23.5167 15.8916 23.5834 15.8916H25.3251C25.3917 15.8916 25.4501 15.9499 25.4501 16.0249C25.4501 16.0999 25.3917 16.1583 25.3251 16.1583H23.5834C23.5167 16.1583 23.4584 16.0999 23.4584 16.0249ZM25.4334 16.0333C25.4334 15.975 25.3834 15.9166 25.325 15.9166H23.5835C23.5252 15.9166 23.4751 15.9665 23.4751 16.0333C23.4751 16.0916 23.5252 16.1499 23.5835 16.1499H25.3252C25.3835 16.1416 25.4335 16.0916 25.4335 16.0333H25.4334Z" fill="white"/>
<path d="M24.3917 16.8666C24.4 16.8 24.4501 16.75 24.5167 16.75L25.2918 16.8083C25.3584 16.8167 25.4083 16.875 25.4 16.9417C25.3917 17.0083 25.3417 17.0583 25.275 17.0583L24.5 17C24.4417 16.9916 24.3917 16.9333 24.3917 16.8666H24.3917Z" fill="white"/>
<path d="M24.3834 16.8667C24.3917 16.7917 24.4501 16.7417 24.5167 16.7417L25.2918 16.8C25.3584 16.8084 25.4167 16.8667 25.4083 16.9417C25.4001 17.0167 25.3417 17.0667 25.275 17.0667L24.5 17.0084C24.4334 17 24.3834 16.9334 24.3834 16.8667ZM25.4001 16.9417C25.4083 16.8834 25.3584 16.8251 25.3 16.8251L24.525 16.7667C24.4667 16.7667 24.4167 16.8084 24.4083 16.8751C24.4001 16.9334 24.4501 16.9917 24.5084 16.9917L25.2834 17.05C25.3417 17.05 25.3917 17.0001 25.4001 16.9417Z" fill="white"/>
<path d="M23.3167 17.4751C23.3334 17.4084 23.3917 17.3667 23.4584 17.3751L25.1667 17.7168C25.2334 17.7334 25.2751 17.7917 25.2584 17.8584C25.2417 17.925 25.1834 17.9668 25.1167 17.9584L23.4083 17.6167C23.35 17.6084 23.3084 17.5417 23.3167 17.4751Z" fill="white"/>
<path d="M23.3084 17.4751C23.3251 17.4001 23.3917 17.3585 23.4584 17.3668L25.1667 17.7085C25.2334 17.7251 25.2834 17.7918 25.2667 17.8668C25.2501 17.9418 25.1834 17.9835 25.1167 17.9752L23.4083 17.6335C23.3417 17.6168 23.3 17.5502 23.3084 17.4752V17.4751ZM25.2501 17.8668C25.2584 17.8085 25.2251 17.7502 25.1667 17.7335L23.4583 17.3918C23.4001 17.3835 23.3417 17.4168 23.325 17.4835C23.3167 17.5418 23.35 17.6001 23.4084 17.6168L25.1167 17.9585C25.1834 17.9668 25.2334 17.9251 25.2501 17.8668Z" fill="white"/>
<path d="M24.0668 18.475C24.0706 18.4591 24.0775 18.4442 24.0871 18.431C24.0967 18.4178 24.1088 18.4066 24.1227 18.3981C24.1367 18.3896 24.1521 18.3839 24.1682 18.3814C24.1844 18.3789 24.2008 18.3795 24.2167 18.3834L24.9667 18.5916C25.0334 18.6083 25.0667 18.6751 25.0501 18.7416C25.0462 18.7575 25.0393 18.7725 25.0297 18.7857C25.0201 18.7989 25.008 18.8101 24.9941 18.8186C24.9801 18.8271 24.9647 18.8328 24.9485 18.8353C24.9324 18.8379 24.9159 18.8372 24.9 18.8333L24.15 18.625C24.0834 18.6083 24.0501 18.5416 24.0667 18.475H24.0668Z" fill="white"/>
<path d="M24.0583 18.4751C24.075 18.4085 24.15 18.3585 24.2167 18.3835L24.9667 18.5918C25.0334 18.6085 25.0751 18.6835 25.0584 18.7501C25.0417 18.8168 24.9667 18.8668 24.9 18.8418L24.15 18.6335C24.0834 18.6168 24.0416 18.5501 24.0584 18.4752L24.0583 18.4751ZM25.0334 18.7501C25.0501 18.6918 25.0167 18.6252 24.9584 18.6085L24.2083 18.4001C24.15 18.3834 24.0917 18.4168 24.075 18.4835C24.0584 18.5418 24.0917 18.6085 24.15 18.6252L24.9 18.8335C24.9584 18.8418 25.0167 18.8085 25.0334 18.7501Z" fill="white"/>
<path d="M22.8917 18.875C22.9166 18.8084 22.9917 18.7833 23.05 18.8084L24.6584 19.475C24.7167 19.5 24.75 19.5751 24.7251 19.6333C24.7 19.7001 24.625 19.725 24.5667 19.7001L22.9584 19.0334C22.8917 19.0084 22.8667 18.9333 22.8917 18.8751V18.875Z" fill="white"/>
<path d="M22.8833 18.8666C22.8956 18.8345 22.92 18.8087 22.9512 18.7946C22.9825 18.7805 23.018 18.7794 23.0501 18.7916L24.6584 19.4582C24.7251 19.4833 24.75 19.5583 24.7251 19.6333C24.7129 19.6653 24.6885 19.6912 24.6572 19.7052C24.626 19.7193 24.5904 19.7204 24.5584 19.7083L22.95 19.0416C22.8834 19.0082 22.8584 18.9332 22.8833 18.8666ZM24.7084 19.6249C24.7333 19.5666 24.7084 19.4999 24.6501 19.4749L23.0417 18.8082C22.9834 18.7833 22.9251 18.8166 22.9 18.8749C22.8751 18.9332 22.9 18.9999 22.9584 19.0249L24.5667 19.6916C24.625 19.7083 24.6917 19.6833 24.7084 19.6249Z" fill="white"/>
<path d="M23.4334 20.0001C23.4668 19.9418 23.5333 19.9168 23.5917 19.9418L24.2833 20.2918C24.3417 20.3168 24.3667 20.3918 24.3334 20.4584C24.3 20.5168 24.2334 20.5419 24.175 20.5168L23.4834 20.1668C23.425 20.1335 23.4 20.0584 23.4334 20.0001Z" fill="white"/>
<path d="M23.425 19.992C23.4584 19.9253 23.5334 19.9003 23.6001 19.9336L24.2917 20.2837C24.3584 20.317 24.3834 20.392 24.35 20.4586C24.3167 20.5253 24.2416 20.5503 24.175 20.5169L23.4834 20.167C23.4167 20.1421 23.3917 20.0586 23.425 19.992ZM24.3251 20.4503C24.35 20.392 24.3333 20.3253 24.275 20.3003L23.5834 19.9503C23.5333 19.9254 23.4667 19.9503 23.4334 20.0003C23.4084 20.0586 23.425 20.1253 23.4833 20.1503L24.175 20.5003C24.2334 20.5253 24.3 20.5087 24.3251 20.4503Z" fill="white"/>
<path d="M22.2083 20.1585C22.2501 20.1002 22.3167 20.0835 22.3751 20.1252L23.825 21.0919C23.8834 21.1252 23.8917 21.2003 23.8584 21.2585C23.8167 21.3169 23.75 21.3335 23.6917 21.2919L22.2417 20.3252C22.1834 20.2835 22.1667 20.2085 22.2083 20.1585Z" fill="white"/>
<path d="M22.2 20.1504C22.2417 20.0921 22.3251 20.0754 22.3834 20.1088L23.8334 21.0754C23.8917 21.1171 23.9084 21.1921 23.8667 21.2587C23.825 21.3172 23.7417 21.3338 23.6834 21.3005L22.2334 20.3338C22.1667 20.2921 22.1584 20.2088 22.2 20.1504ZM23.8417 21.2504C23.875 21.2005 23.8667 21.1254 23.8168 21.0921L22.3667 20.1254C22.3167 20.0921 22.2501 20.1088 22.2167 20.1588C22.1834 20.2088 22.1917 20.2838 22.2416 20.3171L23.6917 21.2838C23.7417 21.3172 23.8083 21.3005 23.8417 21.2505V21.2504Z" fill="white"/>
<path d="M22.5167 21.367C22.5584 21.3169 22.6334 21.3003 22.6834 21.342L23.2917 21.817C23.3417 21.8586 23.35 21.9336 23.3084 21.9837C23.2668 22.0336 23.1917 22.0503 23.1417 22.0086L22.5333 21.5336C22.4834 21.492 22.475 21.417 22.5167 21.367Z" fill="white"/>
<path d="M22.5084 21.3586C22.55 21.3003 22.6334 21.292 22.6917 21.3337L23.3 21.8086C23.3584 21.8503 23.3667 21.9336 23.325 21.9919C23.2834 22.0503 23.2 22.0586 23.1418 22.017L22.5333 21.542C22.475 21.5003 22.4668 21.417 22.5084 21.3586ZM23.3084 21.9837C23.35 21.9336 23.3417 21.8669 23.2917 21.8253L22.6834 21.3503C22.6334 21.317 22.5667 21.3254 22.5251 21.3752C22.4834 21.4253 22.4917 21.492 22.5417 21.5336L23.15 22.0086C23.2 22.042 23.2667 22.0336 23.3083 21.9837H23.3084Z" fill="white"/>
<path d="M21.275 21.2836C21.3251 21.2336 21.4001 21.2336 21.4417 21.2836L22.675 22.5085C22.7251 22.5586 22.7167 22.6336 22.675 22.6752C22.6251 22.7252 22.55 22.7252 22.5084 22.6752L21.275 21.4503C21.2334 21.4086 21.2334 21.3252 21.275 21.2836Z" fill="white"/>
<path d="M21.275 21.2748C21.2995 21.2508 21.3324 21.2373 21.3667 21.2373C21.401 21.2373 21.4339 21.2508 21.4584 21.2748L22.6917 22.4998C22.7158 22.5243 22.7292 22.5572 22.7292 22.5915C22.7292 22.6258 22.7158 22.6587 22.6917 22.6832C22.6672 22.7072 22.6343 22.7207 22.6 22.7207C22.5658 22.7207 22.5328 22.7072 22.5084 22.6832L21.275 21.4582C21.2167 21.4082 21.2167 21.3249 21.275 21.2748ZM22.675 22.6665C22.7167 22.6249 22.7167 22.5499 22.675 22.5082L21.4417 21.2832C21.4001 21.2416 21.3251 21.2416 21.2834 21.2832C21.2417 21.3248 21.2417 21.3998 21.2834 21.4415L22.5167 22.6665C22.5584 22.7166 22.6251 22.7166 22.675 22.6665Z" fill="white"/>
<path d="M21.35 22.5254C21.4001 22.4837 21.475 22.4837 21.5167 22.5337L22.0251 23.117C22.0667 23.1671 22.0584 23.2421 22.0083 23.2837C21.9584 23.3254 21.8833 23.3254 21.8417 23.2754L21.3333 22.6921C21.2917 22.6504 21.3 22.5754 21.35 22.5254Z" fill="white"/>
<path d="M21.3418 22.5252C21.4001 22.4753 21.4751 22.4836 21.525 22.5336L22.0334 23.1169C22.0833 23.167 22.075 23.2502 22.0167 23.3003C21.9584 23.3503 21.8833 23.3419 21.8334 23.2919L21.325 22.7086C21.2833 22.6503 21.2833 22.567 21.3417 22.5252H21.3418ZM22.0084 23.2836C22.0583 23.242 22.0583 23.1752 22.025 23.1253L21.5166 22.5419C21.475 22.5003 21.4083 22.4919 21.3584 22.5336C21.3084 22.5753 21.3084 22.642 21.3417 22.6919L21.8501 23.2753C21.8917 23.3252 21.9584 23.3252 22.0083 23.2836H22.0084Z" fill="white"/>
<path d="M20.15 22.2087C20.2083 22.167 20.2834 22.1837 20.3167 22.242L21.2833 23.6837C21.3166 23.742 21.3 23.817 21.25 23.8504C21.1917 23.892 21.1166 23.8753 21.0833 23.817L20.1166 22.3753C20.0833 22.317 20.1 22.242 20.1499 22.2087H20.15Z" fill="white"/>
<path d="M20.15 22.1999C20.2083 22.1582 20.2917 22.1749 20.3333 22.2332L21.3 23.675C21.3417 23.7332 21.325 23.8166 21.2584 23.8582C21.2 23.8999 21.1167 23.8832 21.075 23.8249L20.1084 22.3832C20.0667 22.3166 20.0834 22.2416 20.15 22.2V22.1999ZM21.2501 23.8416C21.3 23.8082 21.3167 23.7415 21.2833 23.6916L20.3167 22.2499C20.2834 22.2 20.2167 22.1915 20.1584 22.2249C20.1084 22.2582 20.0917 22.3249 20.1251 22.3749L21.0917 23.8166C21.1251 23.8582 21.2001 23.8749 21.25 23.8415L21.2501 23.8416Z" fill="white"/>
<path d="M19.9751 23.4418C20.0334 23.4085 20.1084 23.4252 20.1417 23.4835L20.5251 24.1585C20.5584 24.2168 20.5333 24.2918 20.475 24.3251C20.4167 24.3585 20.3417 24.3418 20.3084 24.2835L19.9251 23.6085C19.9 23.5501 19.9167 23.4751 19.975 23.4418L19.9751 23.4418Z" fill="white"/>
<path d="M19.9751 23.4335C20.0417 23.4001 20.1167 23.4168 20.15 23.4752L20.5333 24.1502C20.5667 24.2085 20.55 24.2918 20.4834 24.3251C20.4167 24.3585 20.3417 24.3418 20.3084 24.2835L19.9251 23.6085C19.8917 23.5502 19.9084 23.4752 19.975 23.4335H19.9751ZM20.475 24.3169C20.5251 24.2835 20.55 24.2168 20.5167 24.1669L20.1334 23.4918C20.1 23.4419 20.0334 23.4252 19.9834 23.4501C19.9333 23.4835 19.9084 23.5502 19.9417 23.6001L20.3251 24.2752C20.35 24.3251 20.425 24.3502 20.475 24.3168V24.3169Z" fill="white"/>
<path d="M18.8667 22.892C18.9333 22.867 19 22.892 19.025 22.9503L19.7 24.5586C19.725 24.6169 19.6917 24.6919 19.6334 24.7169C19.575 24.7419 19.5 24.7169 19.4751 24.6586L18.8001 23.0503C18.775 22.9919 18.8083 22.917 18.8667 22.892Z" fill="white"/>
<path d="M18.8667 22.8835C18.9333 22.8586 19.0083 22.8835 19.0417 22.9502L19.7167 24.5585C19.7288 24.5906 19.7277 24.6261 19.7136 24.6573C19.6996 24.6886 19.6737 24.7129 19.6417 24.7252C19.5751 24.7502 19.5 24.7252 19.4668 24.6585L18.7917 23.0502C18.7667 22.9918 18.8001 22.9169 18.8667 22.8835ZM19.625 24.7085C19.6834 24.6835 19.7084 24.6168 19.6834 24.5669L19.0083 22.9585C18.9834 22.9002 18.9167 22.8752 18.8584 22.9002C18.8001 22.9251 18.775 22.9918 18.8001 23.0419L19.475 24.6502C19.5084 24.7085 19.5667 24.7335 19.625 24.7085Z" fill="white"/>
<path d="M18.4583 24.0752C18.5251 24.0502 18.5917 24.0835 18.6167 24.1502L18.8584 24.8835C18.8834 24.9418 18.8417 25.0168 18.7834 25.0335C18.7167 25.0585 18.6501 25.0252 18.6251 24.9585L18.3834 24.2252C18.3584 24.1669 18.3917 24.1002 18.4584 24.0752H18.4583Z" fill="white"/>
<path d="M18.4501 24.0669C18.4821 24.0548 18.5176 24.0559 18.5489 24.07C18.5801 24.0841 18.6045 24.1099 18.6167 24.1419L18.8584 24.8753C18.8834 24.9419 18.8417 25.0169 18.775 25.042C18.7429 25.054 18.7074 25.0529 18.6762 25.0389C18.6449 25.0248 18.6205 24.999 18.6083 24.967L18.3667 24.2336C18.35 24.167 18.3834 24.0919 18.4501 24.0669ZM18.7751 25.0252C18.8334 25.0086 18.8667 24.9419 18.8501 24.8836L18.6083 24.1503C18.5917 24.0919 18.5251 24.0669 18.4668 24.0836C18.4083 24.1003 18.3751 24.167 18.3917 24.2253L18.6334 24.9586C18.6376 24.9728 18.6448 24.9858 18.6544 24.997C18.6641 25.0082 18.676 25.0173 18.6893 25.0235C18.7027 25.0298 18.7172 25.0332 18.732 25.0335C18.7468 25.0338 18.7614 25.031 18.7751 25.0253V25.0252Z" fill="white"/>
<path d="M17.4751 23.3172C17.5417 23.3005 17.6084 23.3421 17.6167 23.4088L17.9667 25.1172C17.9834 25.1837 17.9333 25.2422 17.8667 25.2588C17.8001 25.2754 17.7333 25.2338 17.7251 25.1671L17.375 23.4588C17.3667 23.4004 17.4083 23.3338 17.475 23.3171L17.4751 23.3172Z" fill="white"/>
<path d="M17.4751 23.3084C17.55 23.2918 17.6167 23.3418 17.6334 23.4084L17.9834 25.1168C18.0001 25.1834 17.95 25.2584 17.8833 25.2667C17.8083 25.2834 17.7417 25.2335 17.7251 25.1668L17.375 23.4584C17.3584 23.3917 17.4001 23.3251 17.475 23.3085L17.4751 23.3084ZM17.8667 25.2501C17.9251 25.2418 17.9667 25.1834 17.9584 25.1167L17.6083 23.4084C17.6001 23.3501 17.5334 23.3085 17.475 23.3251C17.4167 23.3334 17.3751 23.3917 17.3834 23.4584L17.7334 25.1668C17.75 25.2251 17.8083 25.2584 17.8667 25.2501L17.8667 25.2501Z" fill="white"/>
<path d="M16.8417 24.4005C16.9084 24.3921 16.9667 24.4338 16.9834 24.5005L17.0834 25.2671C17.0917 25.3338 17.0417 25.3921 16.975 25.4005C16.9084 25.4088 16.8501 25.3672 16.8334 25.3005L16.7334 24.5338C16.7251 24.4671 16.7751 24.4088 16.8417 24.4005Z" fill="white"/>
<path d="M16.8417 24.3915C16.9167 24.3833 16.9834 24.4332 16.9917 24.4999L17.0917 25.2665C17.1 25.3332 17.0501 25.3999 16.975 25.4082C16.9 25.4166 16.8334 25.3666 16.825 25.2998L16.7251 24.5332C16.7167 24.4665 16.7667 24.3999 16.8417 24.3915ZM16.9667 25.3915C17.025 25.3833 17.0751 25.3249 17.0667 25.2665L16.9667 24.4999C16.9584 24.4416 16.9 24.3999 16.8417 24.4082C16.7834 24.4166 16.7333 24.4749 16.7417 24.5332L16.8417 25.2999C16.8501 25.3582 16.9084 25.3999 16.9667 25.3915Z" fill="white"/>
<path d="M15.9834 23.4668C16.0501 23.4668 16.1084 23.5169 16.1084 23.5835V25.3251C16.1084 25.3918 16.0501 25.4419 15.9834 25.4419C15.9167 25.4419 15.8584 25.3918 15.8584 25.3251V23.5835C15.8668 23.5169 15.9167 23.4668 15.9834 23.4668Z" fill="white"/>
<path d="M15.9834 23.4585C16.0584 23.4585 16.1167 23.5168 16.1167 23.5835V25.3252C16.1167 25.3918 16.0584 25.4502 15.9834 25.4502C15.9084 25.4502 15.8501 25.3918 15.8501 25.3252V23.5836C15.8501 23.5169 15.9167 23.4585 15.9834 23.4585ZM15.9834 25.4335C16.0417 25.4335 16.1 25.3836 16.1 25.3252V23.5836C16.1 23.5252 16.0501 23.4752 15.9834 23.4752C15.9251 23.4752 15.8668 23.5252 15.8668 23.5836V25.3252C15.875 25.3836 15.9251 25.4335 15.9834 25.4335Z" fill="white"/>
<path d="M15.15 24.4003C15.2167 24.4087 15.2667 24.4586 15.2667 24.5253L15.2083 25.3004C15.2001 25.367 15.1417 25.417 15.075 25.4088C15.0083 25.4003 14.9584 25.3503 14.9584 25.2837L15.0167 24.5086C15.025 24.442 15.0834 24.392 15.15 24.4003Z" fill="white"/>
<path d="M15.15 24.3915C15.225 24.3999 15.275 24.4582 15.275 24.5248L15.2167 25.2999C15.2083 25.3666 15.15 25.4249 15.075 25.4166C15.0001 25.4082 14.95 25.3499 14.95 25.2832L15.0083 24.5082C15.0167 24.4332 15.075 24.3833 15.15 24.3915ZM15.075 25.3999C15.1333 25.3999 15.1917 25.3582 15.1917 25.2999L15.2501 24.5248C15.2501 24.4665 15.2083 24.4165 15.1417 24.4082C15.0834 24.4082 15.025 24.4498 15.025 24.5082L14.9667 25.2832C14.9667 25.3415 15.0167 25.3916 15.0751 25.3999H15.075Z" fill="white"/>
<path d="M14.5251 23.317C14.5917 23.3336 14.6334 23.3919 14.625 23.4586L14.2833 25.167C14.2667 25.2336 14.2083 25.2753 14.1417 25.2586C14.075 25.242 14.0334 25.1836 14.0417 25.1169L14.3834 23.4086C14.3917 23.3503 14.4584 23.3086 14.5251 23.317Z" fill="white"/>
<path d="M14.5251 23.3086C14.6 23.3253 14.6417 23.3921 14.6334 23.4586L14.2917 25.167C14.275 25.2337 14.2083 25.2837 14.1334 25.267C14.0584 25.2503 14.0167 25.1836 14.025 25.117L14.3667 23.4087C14.3834 23.342 14.4501 23.3003 14.525 23.3087L14.5251 23.3086ZM14.1334 25.2503C14.1917 25.2586 14.2501 25.2253 14.2667 25.167L14.6083 23.4586C14.6167 23.4003 14.5834 23.342 14.5167 23.3253C14.4584 23.317 14.4001 23.3503 14.3834 23.4087L14.0417 25.117C14.0334 25.1836 14.075 25.2337 14.1334 25.2503Z" fill="white"/>
<path d="M13.525 24.0667C13.5917 24.0834 13.6334 24.1501 13.6167 24.2167L13.4083 24.9668C13.3917 25.0334 13.3251 25.0667 13.2584 25.0501C13.2425 25.0463 13.2276 25.0394 13.2144 25.0298C13.2011 25.0202 13.19 25.0081 13.1814 24.9941C13.1729 24.9802 13.1672 24.9647 13.1647 24.9486C13.1622 24.9324 13.1629 24.916 13.1667 24.9001L13.3751 24.1501C13.3917 24.0834 13.4584 24.0501 13.5251 24.0667H13.525Z" fill="white"/>
<path d="M13.525 24.0585C13.5917 24.0751 13.6417 24.1501 13.6167 24.2167L13.4083 24.9668C13.3917 25.0334 13.3167 25.0751 13.2501 25.0584C13.1834 25.0418 13.1334 24.9668 13.1584 24.9001L13.3667 24.1501C13.3834 24.0834 13.4501 24.0417 13.525 24.0584V24.0585ZM13.2501 25.0334C13.3084 25.0501 13.3751 25.0167 13.3917 24.9584L13.6 24.2084C13.6167 24.1501 13.5834 24.0917 13.5167 24.0751C13.4584 24.0584 13.3917 24.0917 13.3751 24.1501L13.1667 24.9001C13.1584 24.9584 13.1917 25.0167 13.2501 25.0334Z" fill="white"/>
<path d="M13.1167 22.8922C13.1834 22.9171 13.2083 22.9921 13.1834 23.0504L12.5167 24.6588C12.4918 24.7172 12.4167 24.7505 12.3584 24.7172C12.3 24.6838 12.2667 24.6172 12.2917 24.5588L12.9584 22.9505C12.9833 22.8922 13.0584 22.8588 13.1166 22.8922H13.1167Z" fill="white"/>
<path d="M13.1167 22.8837C13.1487 22.8959 13.1746 22.9203 13.1887 22.9515C13.2027 22.9828 13.2038 23.0183 13.1917 23.0504L12.5251 24.6586C12.5 24.7253 12.425 24.7503 12.35 24.7253C12.318 24.7131 12.2922 24.6887 12.2781 24.6575C12.264 24.6263 12.2629 24.5907 12.275 24.5587L12.9417 22.9503C12.9751 22.8837 13.0501 22.8504 13.1167 22.8837ZM12.3584 24.7087C12.4167 24.7336 12.4834 24.7087 12.5084 24.6504L13.1751 23.042C13.2 22.9837 13.1667 22.9253 13.1084 22.9004C13.0501 22.8754 12.9834 22.9004 12.9584 22.9587L12.2917 24.567C12.275 24.617 12.3 24.6837 12.3584 24.7087Z" fill="white"/>
<path d="M11.9917 23.4251C12.0501 23.4584 12.075 23.5251 12.0501 23.5834L11.7 24.2751C11.6667 24.3334 11.6 24.3584 11.5333 24.3251C11.475 24.2918 11.4501 24.2251 11.475 24.1668L11.8251 23.4752C11.8584 23.4168 11.9251 23.3917 11.9917 23.4251Z" fill="white"/>
<path d="M11.9917 23.417C12.0584 23.4503 12.0834 23.5254 12.0501 23.592L11.7 24.2837C11.6667 24.3504 11.5917 24.3754 11.5251 24.342C11.4584 24.3087 11.4334 24.2336 11.4668 24.167L11.8167 23.4754C11.8501 23.4087 11.9251 23.3837 11.9917 23.417ZM11.5334 24.3254C11.5917 24.3504 11.6584 24.3337 11.6834 24.2753L12.0334 23.5837C12.0583 23.5337 12.0334 23.467 11.9834 23.4337C11.9251 23.4088 11.8584 23.4254 11.8334 23.4837L11.4834 24.1753C11.4584 24.2254 11.4834 24.292 11.5334 24.3253V24.3254Z" fill="white"/>
<path d="M11.825 22.1922C11.8834 22.2338 11.9 22.3088 11.8584 22.3588L10.8917 23.8005C10.8584 23.8587 10.7833 23.8671 10.7251 23.8338C10.6668 23.7921 10.6501 23.7171 10.6917 23.6671L11.6584 22.2254C11.6917 22.1671 11.7667 22.1504 11.825 22.1921V22.1922Z" fill="white"/>
<path d="M11.825 22.1833C11.8834 22.225 11.9 22.3083 11.8667 22.3667L10.9 23.8084C10.8584 23.8666 10.7834 23.8833 10.7167 23.8417C10.6584 23.8 10.6417 23.7167 10.675 23.6583L11.6417 22.2166C11.6834 22.1583 11.7667 22.1416 11.825 22.1833ZM10.7251 23.825C10.775 23.8583 10.8501 23.8499 10.8834 23.8L11.8501 22.3583C11.8834 22.3083 11.8667 22.2417 11.8167 22.2083C11.7667 22.175 11.6917 22.1834 11.6584 22.2332L10.6917 23.6666C10.6584 23.7167 10.675 23.7916 10.7251 23.8249V23.825Z" fill="white"/>
<path d="M10.6083 22.5003C10.6584 22.542 10.675 22.617 10.6334 22.6669L10.15 23.2753C10.1084 23.3253 10.0334 23.3336 9.9834 23.292C9.93342 23.2503 9.91673 23.1753 9.95845 23.1253L10.4417 22.5169C10.4834 22.467 10.5584 22.4586 10.6083 22.5003Z" fill="white"/>
<path d="M10.6167 22.4918C10.675 22.5335 10.6834 22.6168 10.6416 22.6751L10.1584 23.2835C10.1167 23.3418 10.0334 23.3501 9.97505 23.3002C9.91673 23.2584 9.90838 23.1752 9.9501 23.1168L10.4334 22.5085C10.475 22.4501 10.5584 22.4418 10.6167 22.4918ZM9.99174 23.2835C10.0416 23.3251 10.1084 23.3169 10.15 23.2668L10.6334 22.6584C10.6667 22.6086 10.6583 22.5418 10.6084 22.5002C10.5584 22.4584 10.4917 22.4668 10.4501 22.5169L9.96671 23.1251C9.93342 23.1752 9.94176 23.2501 9.99165 23.2835H9.99174Z" fill="white"/>
<path d="M10.6917 21.2504C10.7417 21.3003 10.7417 21.3754 10.6917 21.4171L9.45841 22.642C9.40834 22.6921 9.33342 22.6837 9.2917 22.642C9.25006 22.6004 9.24172 22.517 9.2917 22.4754L10.5166 21.2504C10.5667 21.2004 10.6417 21.2004 10.6917 21.2504Z" fill="white"/>
<path d="M10.7 21.2416C10.724 21.2661 10.7375 21.299 10.7375 21.3332C10.7375 21.3675 10.724 21.4004 10.7 21.4248L9.46666 22.65C9.44221 22.674 9.40932 22.6874 9.37505 22.6874C9.34078 22.6874 9.30789 22.674 9.28344 22.65C9.25938 22.6255 9.24589 22.5926 9.24589 22.5583C9.24589 22.5239 9.25938 22.491 9.28344 22.4666L10.5167 21.2416C10.5412 21.2176 10.5741 21.2041 10.6084 21.2041C10.6427 21.2041 10.6756 21.2176 10.7 21.2416ZM9.2917 22.6415C9.33333 22.6832 9.40834 22.6832 9.44997 22.6415L10.6833 21.4165C10.7251 21.3749 10.7251 21.2998 10.6833 21.2582C10.6417 21.2165 10.5667 21.2165 10.5251 21.2582L9.2917 22.4832C9.25006 22.5248 9.25006 22.5915 9.2917 22.6414V22.6415Z" fill="white"/>
<path d="M9.44172 21.3168C9.48335 21.3667 9.48335 21.4418 9.43337 21.4835L8.84172 21.9835C8.79174 22.0251 8.71673 22.0168 8.67501 21.9668C8.63337 21.9168 8.63337 21.8418 8.68335 21.8001L9.27501 21.3002C9.32507 21.2584 9.4 21.2668 9.44172 21.3168Z" fill="white"/>
<path d="M9.45006 21.3082C9.50004 21.3666 9.4917 21.4499 9.44172 21.4916L8.85006 21.9916C8.80008 22.0416 8.71673 22.0333 8.66675 21.975C8.61669 21.9165 8.62503 21.8333 8.67501 21.7916L9.26675 21.2916C9.31664 21.2416 9.40008 21.25 9.44998 21.3083L9.45006 21.3082ZM8.68335 21.9666C8.72507 22.0166 8.79174 22.0166 8.84163 21.9833L9.43337 21.4833C9.47501 21.4416 9.48335 21.3749 9.44172 21.325C9.4 21.2749 9.33333 21.2749 9.28344 21.3083L8.6917 21.8082C8.64172 21.8499 8.64172 21.9166 8.68335 21.9665V21.9666Z" fill="white"/>
<path d="M9.77505 20.117C9.81668 20.1754 9.79999 20.2504 9.74167 20.2837L8.29169 21.2504C8.23337 21.2837 8.15836 21.267 8.12507 21.2171C8.08335 21.1587 8.10004 21.0837 8.15836 21.0504L9.60842 20.0837C9.65849 20.0504 9.73341 20.067 9.77513 20.117H9.77505Z" fill="white"/>
<path d="M9.78339 20.1171C9.82503 20.1755 9.80834 20.2587 9.75002 20.3005L8.30004 21.2671C8.24172 21.3088 8.15836 21.292 8.11673 21.2254C8.07501 21.1671 8.09178 21.0838 8.15002 21.0421L9.60008 20.0754C9.6584 20.0338 9.74167 20.0505 9.78331 20.1171H9.78339ZM8.13342 21.2088C8.16671 21.2587 8.23337 21.2754 8.28335 21.2421L9.73333 20.2754C9.78339 20.2421 9.79999 20.1755 9.75836 20.1171C9.72507 20.0671 9.6584 20.0505 9.60834 20.0838L8.15836 21.0505C8.10838 21.0921 8.10004 21.1588 8.13342 21.2088Z" fill="white"/>
<path d="M8.53333 19.9419C8.5667 20.0002 8.55002 20.0752 8.49169 20.1086L7.81668 20.4919C7.75836 20.5252 7.68335 20.5002 7.65006 20.4419C7.61668 20.3836 7.63337 20.3086 7.69169 20.2752L8.3667 19.8919C8.42503 19.8585 8.50004 19.8836 8.53341 19.9419H8.53333Z" fill="white"/>
<path d="M8.54176 19.9336C8.57505 20.0002 8.55836 20.0753 8.50004 20.1086L7.82503 20.4919C7.7667 20.5252 7.68335 20.5003 7.65006 20.442C7.61668 20.3753 7.63337 20.3003 7.69169 20.2669L8.36671 19.8836C8.42503 19.8502 8.50838 19.8753 8.54167 19.9336H8.54176ZM7.65832 20.4336C7.69169 20.4919 7.75836 20.5086 7.80834 20.4753L8.48335 20.0919C8.53333 20.0586 8.55002 19.9919 8.52507 19.9419C8.49169 19.8836 8.42503 19.8669 8.37505 19.9003L7.70004 20.2836C7.65006 20.3086 7.63337 20.3753 7.6584 20.4336H7.65832Z" fill="white"/>
<path d="M9.0917 18.8335C9.11664 18.9001 9.0917 18.9668 9.02503 18.9918L7.41669 19.6584C7.35836 19.6835 7.28335 19.6502 7.25841 19.5918C7.23337 19.5251 7.25841 19.4584 7.32507 19.4335L8.93342 18.7668C8.99174 18.7419 9.06675 18.7668 9.0917 18.8335Z" fill="white"/>
<path d="M9.10004 18.825C9.12499 18.8917 9.10004 18.9667 9.03337 19L7.42503 19.6667C7.39298 19.6787 7.35745 19.6776 7.32622 19.6636C7.295 19.6495 7.27061 19.6237 7.25841 19.5917C7.23337 19.525 7.25841 19.45 7.32507 19.4167L8.93342 18.75C8.96546 18.7379 9.00099 18.7391 9.03222 18.7531C9.06345 18.7672 9.08784 18.793 9.10004 18.825ZM7.27501 19.5833C7.30004 19.6417 7.36671 19.6668 7.41669 19.65L9.02503 18.9833C9.08335 18.9584 9.10838 18.8917 9.08335 18.8334C9.05841 18.7751 8.99174 18.75 8.94167 18.7667L7.33333 19.4334C7.27501 19.4583 7.25006 19.525 7.27501 19.5834V19.5833Z" fill="white"/>
<path d="M7.91673 18.4168C7.94167 18.4834 7.90838 18.5501 7.84172 18.5751L7.10838 18.8168C7.05006 18.8417 6.97505 18.8001 6.95836 18.7418C6.93342 18.6751 6.96671 18.6084 7.03337 18.5835L7.76671 18.3418C7.82503 18.3168 7.8917 18.3501 7.91673 18.4168Z" fill="white"/>
<path d="M7.92499 18.4084C7.95002 18.475 7.91673 18.5501 7.84172 18.5751L7.10838 18.8167C7.04172 18.8417 6.96671 18.8 6.94167 18.7334C6.91673 18.6667 6.95002 18.5917 7.02512 18.5667L7.75836 18.325C7.82503 18.3084 7.90004 18.3417 7.92507 18.4085L7.92499 18.4084ZM6.95845 18.7251C6.97514 18.7834 7.0418 18.8168 7.10013 18.8001L7.83346 18.5584C7.89178 18.5418 7.91681 18.4751 7.90013 18.4168C7.88344 18.3585 7.81677 18.3251 7.75845 18.3418L7.02512 18.5835C6.96679 18.6085 6.94176 18.6668 6.95845 18.7251Z" fill="white"/>
<path d="M8.66675 17.4253C8.68335 17.492 8.64172 17.5586 8.57505 17.567L6.86666 17.9003C6.8 17.917 6.74167 17.8669 6.72507 17.8003C6.70838 17.7336 6.75002 17.6669 6.81668 17.6586L8.52507 17.3253C8.59174 17.317 8.65841 17.3586 8.66666 17.4253H8.66675Z" fill="white"/>
<path d="M8.68335 17.425C8.70004 17.5 8.65006 17.5667 8.58339 17.5833L6.87501 17.9166C6.80834 17.9333 6.74167 17.8833 6.72507 17.8083C6.70838 17.7333 6.75836 17.6666 6.82503 17.65L8.53342 17.3167C8.6 17.3 8.66675 17.35 8.68335 17.425ZM6.74167 17.8001C6.75002 17.8583 6.80834 17.9 6.86666 17.8917L8.57505 17.5583C8.63337 17.55 8.67501 17.4833 8.6584 17.425C8.65006 17.3667 8.59174 17.325 8.53333 17.3333L6.82503 17.6666C6.76671 17.6833 6.72507 17.7416 6.74167 17.8V17.8001Z" fill="white"/>
<path d="M7.60009 16.7836C7.60834 16.8502 7.56671 16.9086 7.50004 16.917L6.73342 17.0086C6.66667 17.0169 6.60834 16.9669 6.60009 16.9002C6.59174 16.8336 6.63338 16.7753 6.70004 16.7668L7.46675 16.6752C7.52507 16.6669 7.59174 16.7169 7.60009 16.7836Z" fill="white"/>
<path d="M7.60843 16.7837C7.61669 16.8586 7.56671 16.9252 7.50004 16.9336L6.73342 17.0253C6.66666 17.0336 6.60008 16.9837 6.59174 16.9086C6.5834 16.8336 6.63337 16.767 6.70004 16.7586L7.46675 16.6669C7.53333 16.6586 7.60008 16.7086 7.60834 16.7836L7.60843 16.7837ZM6.6 16.9003C6.60834 16.9586 6.66675 17.0087 6.72507 17.0003L7.4917 16.9086C7.55002 16.9003 7.59174 16.842 7.5834 16.7837C7.57505 16.7252 7.51673 16.6753 7.45841 16.6836L6.6917 16.7753C6.63337 16.7837 6.59174 16.842 6.6 16.9003Z" fill="white"/>
<path d="M8.53333 15.9751C8.53333 16.0418 8.48344 16.1002 8.41669 16.1002H6.67509C6.60843 16.1002 6.55845 16.0418 6.55845 15.9752C6.55845 15.9085 6.60843 15.8501 6.67509 15.8501H8.41677C8.48344 15.8501 8.5335 15.9085 8.5335 15.9752L8.53333 15.9751Z" fill="white"/>
<path d="M8.54176 15.9751C8.54176 16.0502 8.48335 16.1085 8.41669 16.1085H6.6751C6.60843 16.1085 6.55011 16.0501 6.55011 15.9751C6.55011 15.9002 6.60843 15.8418 6.6751 15.8418H8.41677C8.48344 15.8418 8.54176 15.9002 8.54176 15.9751ZM6.56671 15.9669C6.56671 16.0252 6.61669 16.0835 6.6751 16.0835H8.41669C8.47501 16.0835 8.52507 16.0335 8.52507 15.9669C8.52507 15.9085 8.47501 15.8501 8.41669 15.8501H6.6751C6.61677 15.8585 6.56679 15.9085 6.56679 15.9669H6.56671Z" fill="white"/>
<path d="M7.60843 15.1336C7.6 15.2002 7.55002 15.2502 7.48335 15.2502L6.7083 15.1919C6.64172 15.1835 6.59174 15.1252 6.6 15.0585C6.60834 14.9919 6.6584 14.9419 6.72507 14.9419L7.50004 15.0002C7.55836 15.0086 7.60843 15.0669 7.60843 15.1336Z" fill="white"/>
<path d="M7.61668 15.1336C7.60834 15.2086 7.55002 15.2586 7.48335 15.2586L6.7083 15.2003C6.64172 15.1919 6.58339 15.1336 6.59174 15.0586C6.59999 14.9837 6.6584 14.9336 6.72507 14.9336L7.50004 14.9919C7.5667 15.0003 7.61668 15.0669 7.61668 15.1336ZM6.59999 15.0586C6.59174 15.1169 6.64172 15.1753 6.70004 15.1753L7.47509 15.2336C7.53333 15.2336 7.58339 15.1919 7.59174 15.1253C7.60008 15.0669 7.55002 15.0086 7.49169 15.0086L6.71664 14.9503C6.6584 14.9503 6.60834 15.0003 6.59999 15.0587V15.0586Z" fill="white"/>
<path d="M8.68335 14.5249C8.66666 14.5916 8.60834 14.6333 8.54168 14.625L6.83337 14.2749C6.76671 14.2583 6.72499 14.1999 6.74168 14.1333C6.75836 14.0666 6.81669 14.0249 6.88335 14.0333L8.59174 14.375C8.65006 14.3916 8.6917 14.4583 8.68335 14.5249Z" fill="white"/>
<path d="M8.6917 14.5254C8.67501 14.6004 8.60834 14.6422 8.54168 14.6338L6.83337 14.2921C6.76671 14.2754 6.71673 14.2088 6.73342 14.1339C6.75002 14.0588 6.81669 14.0171 6.88335 14.0255L8.59174 14.3671C8.65841 14.3838 8.70004 14.4505 8.6917 14.5254ZM6.75002 14.1338C6.74168 14.1921 6.77497 14.2504 6.83337 14.2671L8.54176 14.6088C8.60008 14.6171 8.65841 14.5838 8.67509 14.5171C8.68335 14.4588 8.65006 14.4004 8.59165 14.3837L6.88344 14.0422C6.81677 14.0338 6.76679 14.0754 6.75011 14.1338H6.75002Z" fill="white"/>
<path d="M7.93342 13.5249C7.92959 13.5408 7.92268 13.5558 7.91306 13.569C7.90345 13.5822 7.89133 13.5933 7.8774 13.6019C7.86346 13.6104 7.84799 13.616 7.83186 13.6186C7.81573 13.6211 7.79926 13.6204 7.7834 13.6166L7.03337 13.4082C6.96671 13.3915 6.93342 13.3249 6.95002 13.2582C6.95385 13.2423 6.96076 13.2274 6.97037 13.2142C6.97999 13.201 6.99211 13.1898 7.00604 13.1813C7.01997 13.1728 7.03545 13.1671 7.05158 13.1646C7.06771 13.1621 7.08417 13.1627 7.10004 13.1666L7.85006 13.3749C7.91673 13.3915 7.95002 13.4582 7.93342 13.5249V13.5249Z" fill="white"/>
<path d="M7.94168 13.5251C7.92507 13.5917 7.85006 13.6418 7.7834 13.6167L7.03337 13.4084C6.96671 13.3917 6.92499 13.3167 6.94168 13.2501C6.95836 13.1834 7.03337 13.1334 7.10004 13.1584L7.85006 13.3668C7.91673 13.3835 7.95845 13.4501 7.94168 13.525V13.5251ZM6.96671 13.2499C6.95002 13.3084 6.9834 13.375 7.04172 13.3916L7.79174 13.6C7.85006 13.6167 7.90839 13.5833 7.92507 13.5166C7.94168 13.4583 7.90839 13.3916 7.85006 13.375L7.10004 13.1667C7.04172 13.1583 6.9834 13.1916 6.96671 13.25V13.2499Z" fill="white"/>
<path d="M9.10839 13.1251C9.08344 13.1917 9.00834 13.2167 8.95011 13.1917L7.34168 12.525C7.28335 12.5001 7.25006 12.425 7.27501 12.3667C7.30004 12.3001 7.37505 12.275 7.43338 12.3001L9.04172 12.9667C9.10839 12.9917 9.13342 13.0667 9.10839 13.125V13.1251Z" fill="white"/>
<path d="M9.11673 13.1332C9.10453 13.1652 9.08013 13.1911 9.04888 13.2051C9.01763 13.2192 8.98208 13.2203 8.95002 13.2082L7.34168 12.5415C7.27501 12.5166 7.25006 12.4416 7.27501 12.3666C7.28721 12.3345 7.31161 12.3087 7.34286 12.2946C7.37411 12.2805 7.40966 12.2794 7.44172 12.2916L9.05006 12.9582C9.11673 12.9915 9.14167 13.0666 9.11673 13.1332ZM7.2917 12.3749C7.26675 12.4332 7.2917 12.4999 7.35002 12.5248L8.95836 13.1915C9.01669 13.2165 9.07501 13.1832 9.10004 13.1248C9.12499 13.0665 9.10004 12.9999 9.04172 12.9749L7.43337 12.3082C7.37505 12.2916 7.30838 12.3166 7.2917 12.3749Z" fill="white"/>
<path d="M8.56671 11.9999C8.53342 12.0583 8.46675 12.0833 8.40843 12.0583L7.71673 11.7083C7.65841 11.6833 7.63337 11.6083 7.66675 11.5416C7.70004 11.4833 7.76671 11.4583 7.82503 11.4833L8.51664 11.8333C8.57505 11.8666 8.60008 11.9417 8.56671 11.9999Z" fill="white"/>
<path d="M8.57505 12.0085C8.54168 12.0751 8.46667 12.1002 8.4 12.0668L7.70839 11.7168C7.64172 11.6835 7.61669 11.6085 7.65006 11.5418C7.68335 11.4751 7.75845 11.4501 7.82503 11.4835L8.51664 11.8335C8.5834 11.8584 8.60834 11.9419 8.57505 12.0085ZM7.67501 11.5501C7.65006 11.6085 7.66675 11.6751 7.72507 11.7002L8.41669 12.0502C8.46675 12.0751 8.53342 12.0502 8.56671 12.0001C8.59165 11.9418 8.57505 11.8751 8.51673 11.8501L7.8166 11.5002C7.76662 11.4753 7.69996 11.4919 7.67492 11.5502L7.67501 11.5501Z" fill="white"/>
<path d="M9.79165 11.842C9.75002 11.9004 9.68335 11.9171 9.62503 11.8753L8.18331 10.917C8.12507 10.8837 8.11673 10.8087 8.15002 10.7503C8.1834 10.692 8.25841 10.6753 8.31673 10.717L9.76671 11.6837C9.81669 11.717 9.83337 11.7921 9.79165 11.842Z" fill="white"/>
<path d="M9.79999 11.8501C9.75836 11.9085 9.675 11.9251 9.61677 11.8918L8.17505 10.9251C8.11673 10.8834 8.10004 10.8084 8.14167 10.7418C8.18339 10.6834 8.26675 10.6667 8.32507 10.7001L9.7667 11.6667C9.83337 11.7085 9.84171 11.7917 9.79999 11.8501ZM8.15836 10.7501C8.12507 10.8001 8.13341 10.8751 8.18331 10.9084L9.63337 11.8752C9.68335 11.9085 9.75002 11.8919 9.78339 11.8419C9.81668 11.7918 9.80834 11.7168 9.75845 11.6835L8.3083 10.7168C8.25832 10.6834 8.19165 10.7001 8.15827 10.7501H8.15836Z" fill="white"/>
<path d="M9.48335 10.6335C9.44172 10.6835 9.36671 10.7002 9.31673 10.6585L8.70838 10.1836C8.65841 10.1418 8.65006 10.0668 8.6917 10.0169C8.73333 9.96688 8.80834 9.95019 8.85841 9.99191L9.46666 10.4668C9.51673 10.5086 9.52507 10.5835 9.48335 10.6335Z" fill="white"/>
<path d="M9.4917 10.6417C9.45006 10.7002 9.36671 10.7085 9.30838 10.6668L8.70004 10.1919C8.64172 10.1502 8.63337 10.0669 8.67509 10.0086C8.71673 9.95022 8.80008 9.94187 8.85832 9.98359L9.46666 10.4585C9.52507 10.5002 9.53342 10.5835 9.4917 10.6419V10.6417ZM8.6917 10.0168C8.65006 10.0668 8.65841 10.1334 8.70839 10.1751L9.31673 10.6502C9.36671 10.6835 9.43337 10.6751 9.47501 10.6251C9.51673 10.5752 9.50838 10.5085 9.45841 10.4669L8.85006 9.99177C8.80008 9.95848 8.73333 9.96682 8.69178 10.0168H8.6917Z" fill="white"/>
<path d="M10.725 10.7167C10.6751 10.7667 10.6 10.7667 10.5584 10.7167L9.31682 9.49173C9.26684 9.44175 9.2751 9.36674 9.31682 9.32502C9.3668 9.27512 9.44181 9.27512 9.48344 9.32502L10.7168 10.55C10.7668 10.5917 10.7668 10.675 10.7252 10.7168L10.725 10.7167Z" fill="white"/>
<path d="M10.725 10.7253C10.7005 10.7493 10.6676 10.7628 10.6334 10.7628C10.5991 10.7628 10.5662 10.7493 10.5418 10.7253L9.3083 9.5002C9.28424 9.47574 9.27075 9.44281 9.27075 9.4085C9.27075 9.37419 9.28424 9.34126 9.3083 9.3168C9.33275 9.29276 9.36567 9.2793 9.39995 9.2793C9.43424 9.2793 9.46716 9.29276 9.49161 9.3168L10.725 10.5418C10.7833 10.5918 10.7833 10.6752 10.725 10.7251V10.7253ZM9.32516 9.33349C9.28344 9.37521 9.28344 9.45022 9.32516 9.49177L10.5584 10.7168C10.6002 10.7585 10.6751 10.7585 10.7167 10.7168C10.7584 10.6752 10.7584 10.6002 10.7167 10.5585L9.48344 9.32523C9.4418 9.2836 9.37505 9.2836 9.32516 9.33357V9.33349Z" fill="white"/>
<path d="M10.6501 9.47513C10.6001 9.51685 10.5251 9.51685 10.4834 9.46679L9.97497 8.88347C9.93342 8.8335 9.94168 8.75849 9.99174 8.71685C10.0416 8.67513 10.1167 8.67513 10.1584 8.72511L10.6668 9.30851C10.7084 9.35014 10.7 9.42515 10.6501 9.47513Z" fill="white"/>
<path d="M10.6584 9.47511C10.6001 9.52509 10.5251 9.51683 10.475 9.46676L9.9667 8.88345C9.91673 8.83347 9.92507 8.75012 9.98339 8.70014C10.0417 8.65008 10.1167 8.65842 10.1667 8.70848L10.6751 9.29171C10.7167 9.35012 10.7167 9.43347 10.6584 9.47511ZM9.99174 8.71683C9.94167 8.75846 9.94167 8.82513 9.97505 8.87511L10.4834 9.45842C10.5251 9.50014 10.5917 9.50848 10.6417 9.46676C10.6917 9.42513 10.6917 9.35838 10.6584 9.30848L10.15 8.72509C10.1084 8.67519 10.0416 8.67519 9.99174 8.71683Z" fill="white"/>
<path d="M11.8501 9.79179C11.7917 9.83342 11.7167 9.81673 11.6833 9.75841L10.7084 8.31669C10.675 8.25837 10.6917 8.18336 10.7417 8.15007C10.8 8.10843 10.875 8.12512 10.9084 8.18344L11.875 9.62508C11.9167 9.6834 11.9 9.75841 11.8501 9.7917V9.79179Z" fill="white"/>
<path d="M11.8501 9.80007C11.7917 9.84179 11.7084 9.82502 11.6667 9.76678L10.7 8.32506C10.6584 8.26674 10.6751 8.18347 10.7417 8.14183C10.8 8.10011 10.8834 8.1168 10.9251 8.17512L11.8917 9.61676C11.9333 9.68342 11.9166 9.75844 11.8501 9.80007ZM10.7499 8.15843C10.7 8.19172 10.6833 8.25839 10.7166 8.30846L11.6833 9.75009C11.7166 9.80007 11.7833 9.80841 11.8415 9.77504C11.8916 9.74175 11.9083 9.67508 11.8749 9.6251L10.9084 8.19172C10.875 8.14183 10.8 8.12506 10.7501 8.15843H10.7499Z" fill="white"/>
<path d="M12.025 8.55853C11.9667 8.59182 11.8917 8.57522 11.8584 8.5169L11.475 7.84189C11.4417 7.78356 11.4667 7.70855 11.5251 7.67518C11.5834 7.64189 11.6584 7.65849 11.6917 7.7169L12.075 8.39182C12.1 8.45014 12.0833 8.52515 12.0251 8.55853H12.025Z" fill="white"/>
<path d="M12.025 8.56687C11.9584 8.60016 11.8834 8.58356 11.8501 8.52515L11.4667 7.85023C11.4334 7.79182 11.4501 7.70855 11.5167 7.67518C11.5834 7.64189 11.6584 7.65849 11.6917 7.7169L12.075 8.39182C12.1084 8.45014 12.0917 8.52515 12.0251 8.56687H12.025ZM11.5251 7.68352C11.475 7.71681 11.4501 7.78348 11.4834 7.83354L11.8667 8.50855C11.9 8.55844 11.9667 8.57522 12.0167 8.55019C12.0667 8.5169 12.0917 8.45014 12.0584 8.40016L11.675 7.72515C11.6501 7.67526 11.575 7.65014 11.5251 7.68352Z" fill="white"/>
<path d="M13.1333 9.10868C13.0668 9.13362 13 9.10868 12.9751 9.05035L12.3 7.44192C12.2751 7.3836 12.3084 7.30859 12.3667 7.28356C12.4334 7.25861 12.5 7.28356 12.525 7.34188L13.2 8.95022C13.225 9.00855 13.1917 9.08356 13.1333 9.1085V9.10868Z" fill="white"/>
<path d="M13.1333 9.11683C13.0667 9.14178 12.9917 9.11683 12.9584 9.05008L12.2834 7.44182C12.2712 7.40976 12.2723 7.37421 12.2864 7.34296C12.3005 7.31172 12.3263 7.28731 12.3584 7.27511C12.425 7.25017 12.5 7.27511 12.5334 7.34178L13.2083 8.95012C13.2334 9.00845 13.2001 9.08346 13.1334 9.11683H13.1333ZM12.3751 7.2918C12.3167 7.31675 12.2917 7.3835 12.3167 7.43348L12.9917 9.04174C13.0166 9.10006 13.0833 9.125 13.1416 9.10006C13.1999 9.07511 13.225 9.00836 13.1999 8.95838L12.525 7.35004C12.4916 7.29171 12.4333 7.26668 12.375 7.29171L12.3751 7.2918Z" fill="white"/>
<path d="M13.5417 7.92529C13.475 7.95023 13.4083 7.91686 13.3834 7.85028L13.1417 7.11686C13.1167 7.05853 13.1584 6.98352 13.2167 6.96692C13.275 6.95023 13.35 6.97527 13.375 7.04193L13.6167 7.77527C13.6416 7.83359 13.6083 7.90025 13.5417 7.9252V7.92529Z" fill="white"/>
<path d="M13.55 7.93348C13.518 7.94556 13.4824 7.94445 13.4512 7.93039C13.42 7.91633 13.3956 7.89047 13.3834 7.85847L13.1417 7.12514C13.1167 7.05847 13.1584 6.98355 13.2251 6.95851C13.2572 6.94644 13.2927 6.94755 13.3239 6.96161C13.3551 6.97567 13.3795 7.00153 13.3917 7.03353L13.6334 7.76686C13.6501 7.83353 13.6167 7.90854 13.55 7.93348ZM13.225 6.9752C13.1667 6.9918 13.1333 7.05847 13.15 7.11679L13.3917 7.85021C13.4083 7.90854 13.475 7.93348 13.5334 7.91679C13.5917 7.90019 13.625 7.83353 13.6083 7.7752L13.3667 7.04178C13.3625 7.02764 13.3553 7.01454 13.3456 7.00336C13.336 6.99217 13.3241 6.98313 13.3107 6.97685C13.2974 6.97056 13.2828 6.96715 13.2681 6.96685C13.2533 6.96656 13.2386 6.96937 13.225 6.97512V6.9752Z" fill="white"/>
<path d="M14.5251 8.68364C14.4584 8.70033 14.3917 8.6587 14.3834 8.59194L14.0334 6.88364C14.0167 6.81698 14.0668 6.75865 14.1333 6.74197C14.2001 6.72528 14.2667 6.76691 14.275 6.83367L14.6251 8.54205C14.6334 8.60029 14.5917 8.66696 14.5251 8.68364Z" fill="white"/>
<path d="M14.5251 8.69207C14.4501 8.70876 14.3834 8.65869 14.3667 8.59203L14.0167 6.88372C14 6.81706 14.0501 6.74205 14.1167 6.7337C14.1917 6.71702 14.2584 6.76708 14.275 6.83375L14.6251 8.54213C14.6417 8.60871 14.6001 8.67547 14.5251 8.69207ZM14.1334 6.75039C14.075 6.75874 14.0334 6.81706 14.0417 6.88372L14.3917 8.59211C14.4001 8.65035 14.4667 8.69207 14.5251 8.67538C14.5834 8.66704 14.625 8.60871 14.6167 8.54205L14.2667 6.83366C14.2501 6.77542 14.1917 6.74205 14.1333 6.75039H14.1334Z" fill="white"/>
<path d="M15.1584 7.60018C15.0917 7.60852 15.0334 7.56689 15.0167 7.50022L14.9167 6.73351C14.9084 6.66685 14.9584 6.60852 15.0251 6.60018C15.0917 6.59184 15.15 6.63356 15.1667 6.70022L15.2667 7.46685C15.275 7.53351 15.225 7.59184 15.1584 7.60018Z" fill="white"/>
<path d="M15.1584 7.6084C15.0834 7.61675 15.0167 7.56677 15.0083 7.50002L14.9084 6.73339C14.9 6.66672 14.95 6.60006 15.025 6.59171C15.1 6.58346 15.1667 6.63343 15.1751 6.7001L15.275 7.46672C15.2834 7.53339 15.2334 7.60006 15.1584 7.6084ZM15.0334 6.6084C14.9751 6.61675 14.925 6.67507 14.9333 6.73339L15.0334 7.5001C15.0417 7.55842 15.1 7.60006 15.1584 7.59171C15.2167 7.58346 15.2668 7.52505 15.2584 7.46672L15.1584 6.7001C15.15 6.64178 15.0917 6.60006 15.0334 6.6084Z" fill="white"/>
<path d="M22.7417 9.25879L14.875 14.8504L17.2083 17.1671L22.7417 9.25879Z" fill="white"/>
<path opacity="0.8" d="M14.8834 14.8335L17.2167 17.1501L9.35002 22.7418L14.8834 14.8335Z" fill="white"/>
</g>
<defs>
<radialGradient id="paint0_radial_15_127" cx="0" cy="0" r="1" gradientUnits="userSpaceOnUse" gradientTransform="translate(18.248 12.4854) scale(19.5302)">
<stop stop-color="#2ABCE1"/>
<stop offset="0.11363" stop-color="#2ABBE1"/>
<stop offset="1" stop-color="#3375F8"/>
</radialGradient>
<clipPath id="clip0_15_127">
<rect width="32" height="32" fill="white"/>
</clipPath>
</defs>
</svg>
