<svg width="33" height="32" viewBox="0 0 33 32" fill="none" xmlns="http://www.w3.org/2000/svg">
<rect width="32" height="32" rx="16" fill="url(#paint0_linear_15_270)"/>
<path d="M24.8307 21.9391C23.3159 23.5457 20.6178 26.0703 20.4757 26.1621C20.0971 26.4834 19.671 26.667 19.1977 26.667C18.7243 26.667 18.251 26.4834 17.8723 26.1162C17.1622 25.3817 17.2096 24.2801 17.9196 23.5916C17.9669 23.5457 20.6651 21.067 22.0852 19.5522C22.7479 18.8178 23.0792 17.8998 23.0319 16.9359C22.9846 15.926 22.4639 14.9621 21.6118 14.2736C20.4757 13.3555 18.2983 13.126 16.9255 14.3195C16.1208 15.0539 15.1268 16.0637 15.0794 16.1096C14.3694 16.8441 13.2333 16.89 12.476 16.2014C11.7186 15.5129 11.6712 14.4113 12.3813 13.6768C12.4286 13.6309 13.5173 12.4834 14.4641 11.6572C17.0675 9.36209 21.3751 9.31619 24.0259 11.5654C25.6354 12.8965 26.5821 14.7326 26.7241 16.7063C26.8661 18.6342 26.2034 20.5162 24.8307 21.9391ZM13.7067 22.0768C12.0026 22.0768 10.2985 21.526 8.97309 20.4244C7.36367 19.0932 6.41695 17.2572 6.27494 15.2834C6.13293 13.3555 6.84297 11.5195 8.16838 10.0506C9.68314 8.44406 12.3813 5.91948 12.5233 5.82767C13.2807 5.13915 14.4167 5.18505 15.1268 5.87358C15.8368 6.608 15.7895 7.70964 15.0794 8.39816C15.0321 8.44407 12.3339 10.9227 10.9139 12.4375C10.2512 13.1719 9.91981 14.09 9.96715 15.0539C10.0145 16.0637 10.5352 17.0277 11.3872 17.7162C12.5233 18.6342 14.7008 18.8637 16.0735 17.6703C16.8782 16.9359 17.8723 15.926 17.9196 15.8801C18.6296 15.1457 19.7657 15.0998 20.5231 15.7883C21.2805 16.4768 21.3278 17.5785 20.6177 18.3129C20.5704 18.3588 19.4817 19.5063 18.535 20.3326C17.2096 21.4801 15.4581 22.0768 13.7067 22.0768Z" fill="white"/>
<circle cx="16" cy="16" r="16" fill="url(#paint1_linear_15_270)"/>
<defs>
<linearGradient id="paint0_linear_15_270" x1="16.0222" y1="0.0102282" x2="16.0222" y2="32" gradientUnits="userSpaceOnUse">
<stop stop-color="#00AAFF"/>
<stop offset="1" stop-color="#2255FF"/>
</linearGradient>
<linearGradient id="paint1_linear_15_270" x1="16" y1="4.5" x2="16" y2="32" gradientUnits="userSpaceOnUse">
<stop stop-color="white"/>
<stop offset="1" stop-color="#C4C4C4" stop-opacity="0"/>
</linearGradient>
</defs>
</svg>
