<svg width="36" height="36" viewBox="0 0 36 36" fill="none" xmlns="http://www.w3.org/2000/svg">
<g id="Snapchat" clip-path="url(#clip0_15_76)">
<g id="Snapchat_2">
<rect id="Rectangle" width="36" height="36" rx="18" fill="#FFFC53"/>
<path id="Vector" d="M17.9645 28.352L18.0109 28.3623C18.0314 28.3668 18.0677 28.3678 18.1408 28.3678C19.3854 28.3678 20.2318 27.7893 21.0317 27.2426L21.0668 27.2187C21.0672 27.2184 21.0677 27.218 21.0681 27.2177C21.0831 27.2071 21.0982 27.1964 21.1132 27.1858C21.6556 26.8015 22.2158 26.4046 22.8701 26.2989C23.181 26.2471 23.4971 26.2212 23.8032 26.2212C24.3143 26.2212 24.7231 26.2781 25.0941 26.3553C25.2911 26.3937 25.4338 26.4068 25.5336 26.4068H25.5586C25.6167 26.4068 25.6446 26.3929 25.6599 26.3809C25.6762 26.3681 25.6973 26.3423 25.7146 26.2861C25.7634 26.1102 25.8023 25.9495 25.8364 25.7841L25.8368 25.7822C25.8816 25.5759 25.926 25.3917 25.983 25.2547C26.0354 25.1286 26.128 24.9692 26.3112 24.9397L26.3124 24.9395C27.1491 24.81 27.804 24.6532 28.2698 24.4756C28.5026 24.3868 28.6821 24.2951 28.8118 24.2031C28.9425 24.1103 29.0118 24.0252 29.0423 23.9532L29.0462 23.944L29.051 23.9353C29.0574 23.9238 29.0625 23.9065 29.0625 23.8809C29.0625 23.8264 29.0326 23.7933 28.9872 23.7848C27.3164 23.5064 26.1119 22.5159 25.3231 21.5894C24.6059 20.7471 24.2218 19.9457 24.133 19.7434C24.1303 19.74 24.1278 19.7364 24.1252 19.7326C24.1159 19.7185 24.1087 19.7039 24.1035 19.6892C23.9093 19.2842 23.836 18.8794 23.9935 18.5375C24.1316 18.2259 24.4095 18.0152 24.6902 17.8676C24.9735 17.7186 25.2863 17.6202 25.5239 17.5477L25.5349 17.5443L25.5349 17.5447C25.6465 17.5179 25.7414 17.482 25.8305 17.4474C26.6727 17.1073 26.745 16.8043 26.7405 16.7019L26.7402 16.6938H26.7403C26.7403 16.5685 26.6201 16.3894 26.336 16.2744H26.3307L26.3018 16.2648C26.1897 16.2275 26.0713 16.1992 25.9599 16.1992C25.8876 16.1992 25.7837 16.215 25.685 16.2582C25.6848 16.2583 25.6845 16.2584 25.6843 16.2586L25.6088 16.0869C25.2075 16.2675 24.8565 16.3728 24.5355 16.3828L17.9645 28.352ZM17.9645 28.352L17.9188 28.365C17.9188 28.365 17.9176 28.3653 17.915 28.3657C17.9142 28.3658 17.9133 28.366 17.9123 28.3661C17.9098 28.3664 17.9065 28.3667 17.9024 28.367C17.89 28.3678 17.8761 28.3678 17.8549 28.3678C16.5872 28.3678 15.7406 27.7768 14.9443 27.2209L14.9339 27.2136C14.9337 27.2135 14.9335 27.2134 14.9333 27.2132C14.9203 27.204 14.9073 27.1948 14.8942 27.1856C14.3494 26.7996 13.7931 26.4056 13.1324 26.2942M17.9645 28.352L13.1324 26.2942M10.106 26.3536C10.1712 26.5742 10.3367 26.6093 10.4671 26.6093C10.5898 26.6093 10.746 26.5806 10.9311 26.5464L10.9436 26.5441C11.2445 26.484 11.6658 26.4037 12.1975 26.4037C12.4834 26.4037 12.7943 26.4238 13.1003 26.4789C13.7185 26.5828 14.2441 26.955 14.8022 27.3501L14.8256 27.3667L14.8474 27.3819C15.6394 27.9349 16.528 28.5553 17.8549 28.5553H17.8549C17.895 28.5553 17.9352 28.5553 17.9703 28.5453L10.106 26.3536ZM10.106 26.3536C10.0539 26.1831 10.0197 26.0216 9.98653 25.8648L9.98064 25.837L10.106 26.3536ZM13.1324 26.2942C12.8133 26.2368 12.4913 26.2162 12.1975 26.2162C11.6475 26.2162 11.2119 26.2993 10.9082 26.36C10.7109 26.3963 10.571 26.4218 10.4671 26.4218C10.4159 26.4218 10.3786 26.4144 10.3528 26.4001C10.3336 26.3895 10.3057 26.3675 10.2859 26.3004L10.2853 26.2988C10.2357 26.1364 10.2031 25.9823 10.1696 25.8241L10.1641 25.7981L10.1639 25.7972C10.1191 25.5909 10.0747 25.4068 10.0177 25.2697C9.9653 25.1436 9.87268 24.9843 9.68951 24.9547L9.68795 24.9545C8.85681 24.8276 8.20194 24.6696 7.73494 24.4908C7.50144 24.4013 7.32075 24.3089 7.18999 24.2165C7.063 24.1268 6.99377 24.0446 6.96176 23.9757C6.95885 23.9664 6.95596 23.9574 6.95343 23.9496L6.9524 23.9464C6.94835 23.9338 6.94526 23.9241 6.94271 23.9153C6.94051 23.9077 6.93924 23.9026 6.93854 23.8992L6.93771 23.8876C6.93627 23.8674 6.94229 23.851 6.95351 23.8375C6.96525 23.8235 6.98516 23.8101 7.01352 23.8049C7.0138 23.8048 7.01408 23.8048 7.01436 23.8047L6.9814 23.6201M13.1324 26.2942L23.7921 15.4916C23.8422 14.7271 23.8964 13.8777 23.8778 13.0839C23.8591 12.2836 23.7666 11.564 23.5369 11.0531L23.5367 11.0525C22.1242 7.88306 19.1282 7.63281 18.2311 7.63281H18.2309H18.2308H18.2307H18.2306H18.2305H18.2304H18.2302H18.2301H18.23H18.2299H18.2298H18.2296H18.2295H18.2294H18.2293H18.2292H18.2291H18.2289H18.2288H18.2287H18.2286H18.2285H18.2284H18.2282H18.2281H18.228H18.2279H18.2278H18.2276H18.2275H18.2274H18.2273H18.2272H18.2271H18.2269H18.2268H18.2267H18.2266H18.2265H18.2264H18.2262H18.2261H18.226H18.2259H18.2258H18.2257H18.2255H18.2254H18.2253H18.2252H18.2251H18.2249H18.2248H18.2247H18.2246H18.2245H18.2244H18.2242H18.2241H18.224H18.2239H18.2238H18.2237H18.2235H18.2234H18.2233H18.2232H18.2231H18.223H18.2228H18.2227H18.2226H18.2225H18.2224H18.2223H18.2221H18.222H18.2219H18.2218H18.2217H18.2216H18.2214H18.2213H18.2212H18.2211H18.221H18.2209H18.2207H18.2206H18.2205H18.2204H18.2203H18.2202H18.22H18.2199H18.2198H18.2197H18.2196H18.2195H18.2193H18.2192H18.2191H18.219H18.2189H18.2188H18.2186H18.2185H18.2184H18.2183H18.2182H18.2181H18.2179H18.2178H18.2177H18.2176H18.2175H18.2174H18.2172H18.2171H18.217H18.2169H18.2168H18.2167H18.2166H18.2164H18.2163H18.2162H18.2161H18.216H18.2159H18.2157H18.2156H18.2155H18.2154H18.2153H18.2152H18.215H18.2149H18.2148H18.2147H18.2146H18.2145H18.2144H18.2142H18.2141H18.214H18.2139H18.2138H18.2137H18.2135H18.2134H18.2133H18.2132H18.2131H18.213H18.2129H18.2127H18.2126H18.2125H18.2124H18.2123H18.2122H18.2121H18.2119H18.2118H18.2117H18.2116H18.2115H18.2114H18.2113H18.2111H18.211H18.2109H18.2108H18.2107H18.2106H18.2105H18.2103H18.2102H18.2101H18.21H18.2099H18.2098H18.2097H18.2095H18.2094H18.2093H18.2092H18.2091H18.209H18.2089H18.2088H18.2086H18.2085H18.2084H18.2083H18.2082H18.2081H18.208H18.2078H18.2077H18.2076H18.2075H18.2074H18.2073H18.2072H18.2071H18.2069H18.2068H18.2067H18.2066H18.2065H18.2064H18.2063H18.2062H18.206H18.2059H18.2058H18.2057H18.2056H18.2055H18.2054H18.2053H18.2051H18.205H18.2049H18.2048H18.2047H18.2046H18.2045H18.2044H18.2043H18.2041H18.204H18.2039H18.2038H18.2037H18.2036H18.2035H18.2034H18.2032H18.2031H18.203H18.2029H18.2028H18.2027H18.2026H18.2025H18.2024H18.2023H18.2021H18.202H18.2019H18.2018H18.2017H18.2016H18.2015H18.2014H18.2013H18.2011H18.201H18.2009H18.2008H18.2007H18.2006H18.2005H18.2004H18.2003H18.2002H18.2001H18.1999H18.1998H18.1997H18.1996H18.1995H18.1994H18.1993H18.1992H18.1991H18.199H18.1989H18.1987H18.1986H18.1985H18.1984H18.1983H18.1982H18.1981H18.198H18.1979H18.1978H18.1977H18.1976H18.1974H18.1973H18.1972H18.1971H18.197H18.1969H18.1968H18.1967H18.1966H18.1965H18.1964H18.1963H18.1962H18.196H18.1959H18.1958H18.1957H18.1956H18.1955H18.1954H18.1953H18.1952H18.1951H18.195H18.1949H18.1948H18.1947H18.1946H18.1945H18.1943H18.1942H18.1941H18.194H18.1939H18.1938H18.1937H18.1936H18.1935H18.1934H18.1933H18.1932H18.1931H18.193H18.1929H18.1928H18.1927H18.1926H18.1925H18.1923H18.1922H18.1921H18.192H18.1919H18.1918H18.1917H18.1916H18.1915H18.1914H18.1913H18.1912H18.1911H18.191H18.1909H18.1908H18.1907H18.1906H18.1905H18.1904H18.1903H18.1902H18.1901H18.19H18.1899H18.1898H18.1897H18.1896H18.1895H18.1894H18.1893H18.1891H18.189H18.1889H18.1888H18.1887H18.1886H18.1885H18.1884H18.1883H18.1882H18.1881H18.188H18.1879H18.1878H18.1877H18.1876H18.1875H18.1874H18.1873H18.1872H18.1871H18.187H18.1869H18.1868H18.1867H18.1866H18.1865H18.1864H18.1863H18.1862H18.1861H18.186H18.1859H18.1858H18.1857H18.1856H18.1855H18.1854H18.1853H18.1852H18.1851H18.185H18.1849H18.1848H18.1847H18.1846H18.1846H18.1845H18.1844H18.1843H18.1842H18.1841H18.184H18.1839H18.1838H18.1837H18.1836H18.1835H18.1834H18.1833H18.1832H18.1831H18.183H18.1829H18.1828H18.1827H18.1826H18.1825H18.1824H18.1823H18.1822H18.1821H18.182H18.1819H18.1818H18.1818H18.1817H18.1816H18.1815H18.1814H18.1813H18.1812H18.1811H18.181H18.1809H18.1808H18.1807H18.1806H18.1805H18.1804H18.1803H18.1802H18.1802H18.1801H18.18H18.1799H18.1798H18.1797H18.1796H18.1795H18.1794H18.1793H18.1792H18.1791H18.179H18.1789H18.1789H18.1788H18.1787H18.1786H18.1785H18.1784H18.1783H18.1782H18.1781H18.178H18.1779H18.1779L18.1766 7.63286L18.1646 7.63318L18.1217 7.63431L17.9895 7.63777C17.8948 7.64021 17.7904 7.64284 17.7746 7.64284C16.8778 7.64284 13.8814 7.89797 12.469 11.0626C12.2415 11.574 12.1491 12.2927 12.1298 13.0922C12.1106 13.8874 12.1638 14.7392 12.214 15.5075C12.2291 15.7235 12.2442 15.9559 12.2544 16.1787L12.2581 16.2613L12.1996 16.3198C12.1159 16.4036 11.8732 16.5804 11.41 16.5804C11.0431 16.5804 10.6295 16.4698 10.1883 16.2674L10.1781 16.2627L10.1783 16.2624C10.141 16.2425 10.0853 16.2293 9.99569 16.2293C9.84245 16.2293 9.66438 16.2809 9.51938 16.3706C9.37198 16.4617 9.2866 16.5736 9.26723 16.6779C9.24195 16.8141 9.31909 16.9608 9.51838 17.1186C9.70916 17.2696 9.96365 17.39 10.1655 17.4706C10.1937 17.48 10.2213 17.4897 10.2493 17.4994C10.3182 17.5235 10.3888 17.5481 10.4726 17.5715L10.4774 17.5729L10.4774 17.5729L10.4823 17.5744C10.7224 17.6487 11.036 17.7457 11.3174 17.8924C11.599 18.0391 11.8767 18.2499 12.0093 18.5675C12.0094 18.5675 12.0094 18.5675 12.0094 18.5676L11.8364 18.6398M6.9814 23.6201C8.3105 23.3995 9.50417 22.6923 10.5123 21.5287M6.9814 23.6201C6.84097 23.6452 6.74066 23.7606 6.75069 23.901L6.9814 23.6201ZM10.5123 21.5287L10.654 21.6515C10.654 21.6515 10.654 21.6515 10.654 21.6515L10.5123 21.5287ZM10.5123 21.5287C11.2947 20.6259 11.6759 19.7532 11.711 19.6579C11.711 19.6479 11.721 19.6479 11.721 19.6479C11.9116 19.2517 11.9517 18.9156 11.8364 18.6398M11.8364 18.6398C11.6207 18.1232 10.9085 17.9025 10.422 17.7521L11.8364 18.6398Z" fill="white" stroke="black" stroke-width="0.375"/>
</g>
</g>
<defs>
<clipPath id="clip0_15_76">
<rect width="36" height="36" fill="white"/>
</clipPath>
</defs>
</svg>
