<svg width="120" height="120" viewBox="0 0 120 120" fill="none" xmlns="http://www.w3.org/2000/svg">
<g id="Spotify" clip-path="url(#clip0_33_2862)">
<g id="Spotify_2">
<rect id="Rectangle" width="120" height="120" rx="60" fill="#1ED760"/>
<path id="Vector" d="M87.5776 86.5262C86.5034 88.3166 84.2117 88.8179 82.4213 87.7436C68.313 79.1498 50.6239 77.2161 29.7121 81.9428C27.7069 82.3725 25.7017 81.155 25.272 79.1498C24.8423 77.1445 26.0597 75.1393 28.065 74.7096C50.9104 69.4816 70.5331 71.7017 86.2886 81.3699C88.0789 82.4441 88.6519 84.7358 87.5776 86.5262ZM94.8824 70.1978C93.5217 72.4179 90.6571 73.0624 88.437 71.7733C72.3235 61.8188 47.7593 58.9541 28.7095 64.755C26.203 65.4712 23.6248 64.1105 22.9087 61.6755C22.1925 59.169 23.5532 56.5908 26.0597 55.8747C47.8309 49.286 74.9017 52.4371 93.4501 63.824C95.527 65.1131 96.2431 67.9777 94.8824 70.1978ZM95.527 53.1533C76.1907 41.6947 44.3217 40.6205 25.8449 46.2065C22.9087 47.1375 19.7576 45.4904 18.8266 42.4825C17.8956 39.5463 19.6143 36.3952 22.5506 35.4642C43.7488 29.0188 78.9838 30.3078 101.185 43.4851C103.834 45.0607 104.694 48.4982 103.118 51.148C101.614 53.8694 98.1768 54.8004 95.527 53.1533Z" fill="white"/>
</g>
</g>
<defs>
<clipPath id="clip0_33_2862">
<rect width="120" height="120" fill="white"/>
</clipPath>
</defs>
</svg>
