<svg width="36" height="36" viewBox="0 0 36 36" fill="none" xmlns="http://www.w3.org/2000/svg">
<g id="Steam" clip-path="url(#clip0_15_106)">
<g id="Steam_2">
<rect id="Rectangle" width="36" height="36" rx="18" fill="url(#paint0_linear_15_106)"/>
<g id="Mask Group">
<mask id="mask0_15_106" style="mask-type:alpha" maskUnits="userSpaceOnUse" x="0" y="0" width="36" height="36">
<rect id="Rectangle_2" width="36" height="36" rx="18" fill="url(#paint1_linear_15_106)"/>
</mask>
<g mask="url(#mask0_15_106)">
<path id="Vector" d="M17.0607 13.4916C17.0607 13.5219 17.0607 13.5522 17.0622 13.5806L12.6548 19.979C11.9408 19.9466 11.2244 20.0717 10.545 20.3514C10.2455 20.4734 9.96494 20.6233 9.70165 20.7963L-0.281248 16.7341C-0.281248 16.7341 -1.40202 20.1307 -0.468747 22.8748L7.57474 26.0619C7.91828 27.5962 8.97145 28.9419 10.5252 29.5893C13.0674 30.6508 15.9986 29.441 17.0561 26.8994C17.3313 26.235 17.4596 25.5381 17.441 24.8429L23.7474 20.339C23.7984 20.3406 23.851 20.3421 23.902 20.3421C27.6759 20.3421 30.7433 17.2674 30.7433 13.4916C30.7433 9.71545 27.6759 6.64355 23.902 6.64355C20.1296 6.64355 17.0607 9.71545 17.0607 13.4916ZM16.0032 26.4575C15.1847 28.4212 12.9266 29.3529 10.9637 28.5356C10.0582 28.1586 9.3745 27.4679 8.9801 26.6444L11.2072 27.5668C12.6548 28.1694 14.3155 27.4834 14.9173 26.0372C15.5208 24.5895 14.8361 22.927 13.3893 22.3244L11.0871 21.3711C11.9754 21.0343 12.9853 21.0219 13.9289 21.4144C14.8801 21.8099 15.6182 22.5546 16.0094 23.5064C16.4005 24.4581 16.399 25.5088 16.0032 26.4575ZM23.902 18.0554C21.3896 18.0554 19.3442 16.0082 19.3442 13.4916C19.3442 10.977 21.3896 8.92917 23.902 8.92917C26.4159 8.92917 28.4613 10.977 28.4613 13.4916C28.4613 16.0082 26.4159 18.0554 23.902 18.0554ZM20.4868 13.4846C20.4868 11.5915 22.0204 10.056 23.9097 10.056C25.8005 10.056 27.3342 11.5915 27.3342 13.4846C27.3342 15.378 25.8005 16.9121 23.9097 16.9121C22.0204 16.9121 20.4868 15.378 20.4868 13.4846Z" fill="white"/>
</g>
</g>
</g>
</g>
<defs>
<linearGradient id="paint0_linear_15_106" x1="18" y1="0" x2="18" y2="36" gradientUnits="userSpaceOnUse">
<stop stop-color="#111D2E"/>
<stop offset="0.21248" stop-color="#051839"/>
<stop offset="0.40695" stop-color="#0A1B48"/>
<stop offset="0.5811" stop-color="#132E62"/>
<stop offset="0.7376" stop-color="#144B7E"/>
<stop offset="0.87279" stop-color="#136497"/>
<stop offset="1" stop-color="#1387B8"/>
</linearGradient>
<linearGradient id="paint1_linear_15_106" x1="18" y1="0" x2="18" y2="36" gradientUnits="userSpaceOnUse">
<stop stop-color="#111D2E"/>
<stop offset="0.21248" stop-color="#051839"/>
<stop offset="0.40695" stop-color="#0A1B48"/>
<stop offset="0.5811" stop-color="#132E62"/>
<stop offset="0.7376" stop-color="#144B7E"/>
<stop offset="0.87279" stop-color="#136497"/>
<stop offset="1" stop-color="#1387B8"/>
</linearGradient>
<clipPath id="clip0_15_106">
<rect width="36" height="36" fill="white"/>
</clipPath>
</defs>
</svg>
