<svg width="160" height="160" viewBox="0 0 160 160" fill="none" xmlns="http://www.w3.org/2000/svg">
<g id="Twitter" clip-path="url(#clip0_33_2848)">
<g id="Twitter_2">
<rect id="Rectangle" width="160" height="160" rx="80" fill="#1DA1F2"/>
<path id="Path" d="M119.208 62.7083C119.208 63.5833 119.208 64.4583 119.208 65.2083C119.208 91.0833 99.4583 120.958 63.4583 120.958C52.3333 120.958 42.0833 117.708 33.3333 112.208C34.8333 112.333 36.4583 112.458 37.9583 112.458C47.0833 112.458 55.5833 109.333 62.3333 104.083C53.7083 103.958 46.4583 98.2083 44.0833 90.4583C45.3333 90.7083 46.4583 90.8333 47.8333 90.8333C49.5833 90.8333 51.3333 90.5833 52.9583 90.0833C43.9583 88.3333 37.2083 80.4583 37.2083 70.9583C37.2083 70.8333 37.2083 70.8333 37.2083 70.7083C39.8333 72.2083 42.8333 73.0833 46.0833 73.2083C40.8333 69.7083 37.3333 63.7083 37.3333 56.8333C37.3333 53.2083 38.3333 49.8333 39.9583 46.9583C49.5833 58.8333 64.0833 66.5833 80.3333 67.4583C79.9583 66.0833 79.8333 64.4583 79.8333 62.9583C79.8333 52.0833 88.5833 43.3333 99.4583 43.3333C105.083 43.3333 110.208 45.7083 113.708 49.4583C118.208 48.5833 122.333 46.9583 126.208 44.7083C124.708 49.3333 121.583 53.0833 117.583 55.5833C121.583 55.0833 125.333 54.0833 128.833 52.4583C126.333 56.4583 123.083 59.9583 119.208 62.7083Z" fill="white"/>
</g>
</g>
<defs>
<clipPath id="clip0_33_2848">
<rect width="160" height="160" fill="white"/>
</clipPath>
</defs>
</svg>
